<svg width="2845" height="1062" viewBox="0 0 2845 1062" fill="none" xmlns="http://www.w3.org/2000/svg">
<path d="M43 341V730.5L2687.5 741.5V593.5H2803.5V354.5H2687.5V328.5L402 320V341H43Z" fill="#202125" stroke="#BDBDBD" stroke-width="6"/>
<path d="M451 729.5V545.5H777V729.5H451Z" fill="#3A3A3A"/>
<path d="M476.5 542.5H450.5V731.5H665V621" stroke="#BDBDBD" stroke-width="6"/>
<path d="M664.5 584.5V543H511.5" stroke="#BDBDBD" stroke-width="6"/>
<path d="M664.5 543H778V733H664.5" stroke="#BDBDBD" stroke-width="6"/>
<path d="M43 531.5H123.5L409.5 531V542.5H449.5V731H44L43 531.5Z" fill="#3A3A3A"/>
<path d="M123.5 528.5H43L44 731H449.5V542.5H409.5V528H162.5" stroke="#BDBDBD" stroke-width="6"/>
<path d="M2454.5 657H2501.5H2533H2564.5V523.5H2687V355V327.5H2454.5V657Z" fill="#3A3A3A"/>
<path d="M2501.5 661H2454.5V327.5H2687V355V523.5H2564.5V661H2533" stroke="#BDBDBD" stroke-width="6"/>
<rect x="2690" y="397" width="51" height="129" fill="#5F6DEC"/>
<rect x="2750" y="397" width="50" height="129" fill="#5F6DEC"/>
<path d="M2740.77 397H2745.85H2750.92M2740.77 397H2715.38M2740.77 397V409.9M2750.92 397H2775.46M2750.92 397V409.9M2750.92 526H2740.77M2750.92 526H2775.46M2750.92 526V514.092M2740.77 526H2715.38M2740.77 526V514.092M2715.38 397H2690V409.9M2715.38 397V448.6M2715.38 526H2690V514.092M2715.38 526V474.991M2775.46 526H2800V514.092M2775.46 526V397M2775.46 397H2800V409.9M2750.92 461.5H2800M2750.92 461.5V474.991M2750.92 461.5V448.6M2800 461.5V474.991M2800 461.5V448.6M2800 474.991V488.292M2800 474.991H2775.46H2750.92M2750.92 474.991V488.292M2750.92 488.292V501.216M2750.92 488.292H2775.46H2800M2800 488.292V501.216M2800 501.216V514.092M2800 501.216H2775.46H2750.92M2750.92 501.216V514.092M2750.92 514.092H2800M2750.92 448.6H2800M2750.92 448.6V435.635M2800 448.6V435.635M2800 435.635V422.8M2800 435.635H2775.46H2750.92M2750.92 435.635V422.8M2750.92 422.8H2800M2750.92 422.8V409.9M2800 422.8V409.9M2800 409.9H2750.92M2740.77 514.092H2690M2740.77 514.092V501.216M2690 514.092V501.216M2690 501.216H2740.77M2690 501.216V488.292M2740.77 501.216V488.292M2740.77 488.292H2690M2740.77 488.292V474.991M2690 488.292V474.991M2690 474.991H2715.38M2690 474.991V461.5M2715.38 474.991H2740.77M2715.38 474.991V461.5M2740.77 474.991V461.5M2715.38 461.5H2740.77M2715.38 461.5H2690M2715.38 461.5V448.6M2740.77 461.5V448.6M2690 461.5V448.6M2690 448.6H2715.38M2690 448.6V435.635M2715.38 448.6H2740.77M2740.77 448.6V435.635M2740.77 435.635H2690M2740.77 435.635V422.8M2690 435.635V422.8M2690 422.8H2740.77M2690 422.8V409.9M2740.77 422.8V409.9M2740.77 409.9H2690" stroke="#9C9C9F" stroke-width="2"/>
<rect x="2007" y="326" width="447" height="329" fill="#3A3A3A"/>
<path d="M2155.5 660H2007L2004 326H2453.5V660H2192" stroke="#BDBDBD" stroke-width="6"/>
<rect x="1783" y="326" width="224" height="329" fill="#3A3A3A"/>
<path d="M1879 659.5H1783.5V324.5H2003.5L2007.5 659.5H1909.5" stroke="#BDBDBD" stroke-width="6"/>
<rect x="1560" y="324" width="220" height="331" fill="#3A3A3A"/>
<path d="M1654 659H1559.5V324.5H1783V659H1685" stroke="#BDBDBD" stroke-width="6"/>
<rect x="1339" y="324" width="220" height="331" fill="#3A3A3A"/>
<path d="M1434 658.5H1339.5V322.5H1559V658.5H1463" stroke="#BDBDBD" stroke-width="6"/>
<path d="M1227 324H1339V654H1227V324Z" fill="#3A3A3A"/>
<path d="M1297 658.5H1226.5V322.5H1339V658.5H1322.5" stroke="#BDBDBD" stroke-width="6"/>
<rect x="889" y="324" width="337" height="330" fill="#3A3A3A"/>
<path d="M1025 658H890V324H1226V658H1057.5" stroke="#BDBDBD" stroke-width="6"/>
<rect x="772" y="321" width="114" height="146" fill="#3A3A3A"/>
<path d="M842.5 470.5H772V322H889V470.5H867.5" stroke="#BDBDBD" stroke-width="6"/>
<rect x="552" y="320" width="220" height="147" fill="#3A3A3A"/>
<path d="M576.5 470H551.5V321.5H771.5V470H600" stroke="#BDBDBD" stroke-width="6"/>
<rect x="280" y="341" width="122" height="90" fill="#3A3A3A"/>
<path d="M333.5 433.5H279.5V341H402.5V433.5H372.5" stroke="#BDBDBD" stroke-width="6"/>
<rect x="402" y="320" width="146" height="147" fill="#3A3A3A"/>
<path d="M450 470H403V321H550.5V470H481.5" stroke="#BDBDBD" stroke-width="6"/>
<path d="M61.56 556.736C63.64 556.736 65.4 558.016 65.4 560.48C65.4 562.944 63.48 564.224 61.32 564.224C59.544 564.224 58.008 563.472 57.32 561.824L59.528 560.544C59.784 561.28 60.264 561.728 61.32 561.728C62.376 561.728 62.84 561.168 62.84 560.48C62.84 559.792 62.376 559.232 61.4 559.232H57.896L58.36 552.8H64.84V555.2H60.76L60.648 556.736H61.56ZM71.5766 557.344C72.9526 557.824 73.9606 558.928 73.9606 560.48C73.9606 562.944 72.0406 564.224 69.8806 564.224C68.1846 564.224 66.6486 563.472 65.9606 561.824L68.1686 560.544C68.4246 561.28 68.9046 561.728 69.8806 561.728C70.9366 561.728 71.4006 561.168 71.4006 560.48C71.4006 559.792 70.9366 559.232 69.8806 559.232H69.3526L68.3766 557.776L70.4086 555.2H66.3126V552.8H73.5126V554.88L71.5766 557.344ZM79.4775 564.224C76.5815 564.224 74.9175 561.856 74.9175 558.4C74.9175 554.944 76.5815 552.576 79.4775 552.576C82.3735 552.576 84.0375 554.944 84.0375 558.4C84.0375 561.856 82.3735 564.224 79.4775 564.224ZM79.4775 561.728C80.8215 561.728 81.4775 560.56 81.4775 558.4C81.4775 556.24 80.8215 555.072 79.4775 555.072C78.1335 555.072 77.4775 556.24 77.4775 558.4C77.4775 560.56 78.1335 561.728 79.4775 561.728ZM87.2911 552.8H89.5311V564H86.9711V555.504L84.9871 556.048L84.3631 553.856L87.2911 552.8Z" fill="white"/>
<path d="M465.56 565.736C467.64 565.736 469.4 567.016 469.4 569.48C469.4 571.944 467.48 573.224 465.32 573.224C463.544 573.224 462.008 572.472 461.32 570.824L463.528 569.544C463.784 570.28 464.264 570.728 465.32 570.728C466.376 570.728 466.84 570.168 466.84 569.48C466.84 568.792 466.376 568.232 465.4 568.232H461.896L462.36 561.8H468.84V564.2H464.76L464.648 565.736H465.56ZM475.577 566.344C476.953 566.824 477.961 567.928 477.961 569.48C477.961 571.944 476.041 573.224 473.881 573.224C472.185 573.224 470.649 572.472 469.961 570.824L472.169 569.544C472.425 570.28 472.905 570.728 473.881 570.728C474.937 570.728 475.401 570.168 475.401 569.48C475.401 568.792 474.937 568.232 473.881 568.232H473.353L472.377 566.776L474.409 564.2H470.313V561.8H477.513V563.88L475.577 566.344ZM483.478 573.224C480.582 573.224 478.918 570.856 478.918 567.4C478.918 563.944 480.582 561.576 483.478 561.576C486.374 561.576 488.038 563.944 488.038 567.4C488.038 570.856 486.374 573.224 483.478 573.224ZM483.478 570.728C484.822 570.728 485.478 569.56 485.478 567.4C485.478 565.24 484.822 564.072 483.478 564.072C482.134 564.072 481.478 565.24 481.478 567.4C481.478 569.56 482.134 570.728 483.478 570.728ZM488.555 573V571.144L492.315 567.24C492.971 566.568 493.451 565.912 493.451 565.256C493.451 564.552 493.003 564.072 492.251 564.072C491.467 564.072 490.907 564.584 490.603 565.288L488.443 564.024C489.163 562.36 490.667 561.576 492.219 561.576C494.219 561.576 496.011 562.888 496.011 565.144C496.011 566.488 495.291 567.64 494.267 568.664L492.411 570.536H496.171V573H488.555Z" fill="white"/>
<path d="M1247.56 639.736C1249.64 639.736 1251.4 641.016 1251.4 643.48C1251.4 645.944 1249.48 647.224 1247.32 647.224C1245.54 647.224 1244.01 646.472 1243.32 644.824L1245.53 643.544C1245.78 644.28 1246.26 644.728 1247.32 644.728C1248.38 644.728 1248.84 644.168 1248.84 643.48C1248.84 642.792 1248.38 642.232 1247.4 642.232H1243.9L1244.36 635.8H1250.84V638.2H1246.76L1246.65 639.736H1247.56ZM1257.58 640.344C1258.95 640.824 1259.96 641.928 1259.96 643.48C1259.96 645.944 1258.04 647.224 1255.88 647.224C1254.18 647.224 1252.65 646.472 1251.96 644.824L1254.17 643.544C1254.42 644.28 1254.9 644.728 1255.88 644.728C1256.94 644.728 1257.4 644.168 1257.4 643.48C1257.4 642.792 1256.94 642.232 1255.88 642.232H1255.35L1254.38 640.776L1256.41 638.2H1252.31V635.8H1259.51V637.88L1257.58 640.344ZM1265.48 647.224C1262.58 647.224 1260.92 644.856 1260.92 641.4C1260.92 637.944 1262.58 635.576 1265.48 635.576C1268.37 635.576 1270.04 637.944 1270.04 641.4C1270.04 644.856 1268.37 647.224 1265.48 647.224ZM1265.48 644.728C1266.82 644.728 1267.48 643.56 1267.48 641.4C1267.48 639.24 1266.82 638.072 1265.48 638.072C1264.13 638.072 1263.48 639.24 1263.48 641.4C1263.48 643.56 1264.13 644.728 1265.48 644.728ZM1279.64 642.84V645.208H1278.52V647H1275.92V645.208H1270.84V642.84L1274.4 635.8H1277.16L1273.59 642.84H1275.92V640.44H1278.52V642.84H1279.64Z" fill="white"/>
<path d="M909.56 639.736C911.64 639.736 913.4 641.016 913.4 643.48C913.4 645.944 911.48 647.224 909.32 647.224C907.544 647.224 906.008 646.472 905.32 644.824L907.528 643.544C907.784 644.28 908.264 644.728 909.32 644.728C910.376 644.728 910.84 644.168 910.84 643.48C910.84 642.792 910.376 642.232 909.4 642.232H905.896L906.36 635.8H912.84V638.2H908.76L908.648 639.736H909.56ZM919.577 640.344C920.953 640.824 921.961 641.928 921.961 643.48C921.961 645.944 920.041 647.224 917.881 647.224C916.185 647.224 914.649 646.472 913.961 644.824L916.169 643.544C916.425 644.28 916.905 644.728 917.881 644.728C918.937 644.728 919.401 644.168 919.401 643.48C919.401 642.792 918.937 642.232 917.881 642.232H917.353L916.377 640.776L918.409 638.2H914.313V635.8H921.513V637.88L919.577 640.344ZM927.478 647.224C924.582 647.224 922.918 644.856 922.918 641.4C922.918 637.944 924.582 635.576 927.478 635.576C930.374 635.576 932.038 637.944 932.038 641.4C932.038 644.856 930.374 647.224 927.478 647.224ZM927.478 644.728C928.822 644.728 929.478 643.56 929.478 641.4C929.478 639.24 928.822 638.072 927.478 638.072C926.134 638.072 925.478 639.24 925.478 641.4C925.478 643.56 926.134 644.728 927.478 644.728ZM937.967 640.344C939.343 640.824 940.351 641.928 940.351 643.48C940.351 645.944 938.431 647.224 936.271 647.224C934.575 647.224 933.039 646.472 932.351 644.824L934.559 643.544C934.815 644.28 935.295 644.728 936.271 644.728C937.327 644.728 937.791 644.168 937.791 643.48C937.791 642.792 937.327 642.232 936.271 642.232H935.743L934.767 640.776L936.799 638.2H932.703V635.8H939.903V637.88L937.967 640.344Z" fill="white"/>
<path d="M1360.56 639.736C1362.64 639.736 1364.4 641.016 1364.4 643.48C1364.4 645.944 1362.48 647.224 1360.32 647.224C1358.54 647.224 1357.01 646.472 1356.32 644.824L1358.53 643.544C1358.78 644.28 1359.26 644.728 1360.32 644.728C1361.38 644.728 1361.84 644.168 1361.84 643.48C1361.84 642.792 1361.38 642.232 1360.4 642.232H1356.9L1357.36 635.8H1363.84V638.2H1359.76L1359.65 639.736H1360.56ZM1370.58 640.344C1371.95 640.824 1372.96 641.928 1372.96 643.48C1372.96 645.944 1371.04 647.224 1368.88 647.224C1367.18 647.224 1365.65 646.472 1364.96 644.824L1367.17 643.544C1367.42 644.28 1367.9 644.728 1368.88 644.728C1369.94 644.728 1370.4 644.168 1370.4 643.48C1370.4 642.792 1369.94 642.232 1368.88 642.232H1368.35L1367.38 640.776L1369.41 638.2H1365.31V635.8H1372.51V637.88L1370.58 640.344ZM1378.48 647.224C1375.58 647.224 1373.92 644.856 1373.92 641.4C1373.92 637.944 1375.58 635.576 1378.48 635.576C1381.37 635.576 1383.04 637.944 1383.04 641.4C1383.04 644.856 1381.37 647.224 1378.48 647.224ZM1378.48 644.728C1379.82 644.728 1380.48 643.56 1380.48 641.4C1380.48 639.24 1379.82 638.072 1378.48 638.072C1377.13 638.072 1376.48 639.24 1376.48 641.4C1376.48 643.56 1377.13 644.728 1378.48 644.728ZM1387.92 639.736C1390 639.736 1391.76 641.016 1391.76 643.48C1391.76 645.944 1389.84 647.224 1387.68 647.224C1385.9 647.224 1384.37 646.472 1383.68 644.824L1385.89 643.544C1386.14 644.28 1386.62 644.728 1387.68 644.728C1388.74 644.728 1389.2 644.168 1389.2 643.48C1389.2 642.792 1388.74 642.232 1387.76 642.232H1384.26L1384.72 635.8H1391.2V638.2H1387.12L1387.01 639.736H1387.92Z" fill="white"/>
<path d="M1580.56 639.736C1582.64 639.736 1584.4 641.016 1584.4 643.48C1584.4 645.944 1582.48 647.224 1580.32 647.224C1578.54 647.224 1577.01 646.472 1576.32 644.824L1578.53 643.544C1578.78 644.28 1579.26 644.728 1580.32 644.728C1581.38 644.728 1581.84 644.168 1581.84 643.48C1581.84 642.792 1581.38 642.232 1580.4 642.232H1576.9L1577.36 635.8H1583.84V638.2H1579.76L1579.65 639.736H1580.56ZM1590.58 640.344C1591.95 640.824 1592.96 641.928 1592.96 643.48C1592.96 645.944 1591.04 647.224 1588.88 647.224C1587.18 647.224 1585.65 646.472 1584.96 644.824L1587.17 643.544C1587.42 644.28 1587.9 644.728 1588.88 644.728C1589.94 644.728 1590.4 644.168 1590.4 643.48C1590.4 642.792 1589.94 642.232 1588.88 642.232H1588.35L1587.38 640.776L1589.41 638.2H1585.31V635.8H1592.51V637.88L1590.58 640.344ZM1598.48 647.224C1595.58 647.224 1593.92 644.856 1593.92 641.4C1593.92 637.944 1595.58 635.576 1598.48 635.576C1601.37 635.576 1603.04 637.944 1603.04 641.4C1603.04 644.856 1601.37 647.224 1598.48 647.224ZM1598.48 644.728C1599.82 644.728 1600.48 643.56 1600.48 641.4C1600.48 639.24 1599.82 638.072 1598.48 638.072C1597.13 638.072 1596.48 639.24 1596.48 641.4C1596.48 643.56 1597.13 644.728 1598.48 644.728ZM1608.43 639.336C1610.65 639.512 1612.16 641.096 1612.16 643.272C1612.16 645.592 1610.46 647.224 1608 647.224C1605.52 647.224 1603.84 645.592 1603.84 643.272C1603.84 642.408 1604.08 641.624 1604.49 641L1607.92 635.8H1610.86L1608.43 639.336ZM1608 644.824C1608.84 644.824 1609.6 644.248 1609.6 643.272C1609.6 642.296 1608.84 641.72 1608 641.72C1607.13 641.72 1606.4 642.28 1606.4 643.272C1606.4 644.264 1607.13 644.824 1608 644.824Z" fill="white"/>
<path d="M1804.56 639.736C1806.64 639.736 1808.4 641.016 1808.4 643.48C1808.4 645.944 1806.48 647.224 1804.32 647.224C1802.54 647.224 1801.01 646.472 1800.32 644.824L1802.53 643.544C1802.78 644.28 1803.26 644.728 1804.32 644.728C1805.38 644.728 1805.84 644.168 1805.84 643.48C1805.84 642.792 1805.38 642.232 1804.4 642.232H1800.9L1801.36 635.8H1807.84V638.2H1803.76L1803.65 639.736H1804.56ZM1814.58 640.344C1815.95 640.824 1816.96 641.928 1816.96 643.48C1816.96 645.944 1815.04 647.224 1812.88 647.224C1811.18 647.224 1809.65 646.472 1808.96 644.824L1811.17 643.544C1811.42 644.28 1811.9 644.728 1812.88 644.728C1813.94 644.728 1814.4 644.168 1814.4 643.48C1814.4 642.792 1813.94 642.232 1812.88 642.232H1812.35L1811.38 640.776L1813.41 638.2H1809.31V635.8H1816.51V637.88L1814.58 640.344ZM1822.48 647.224C1819.58 647.224 1817.92 644.856 1817.92 641.4C1817.92 637.944 1819.58 635.576 1822.48 635.576C1825.37 635.576 1827.04 637.944 1827.04 641.4C1827.04 644.856 1825.37 647.224 1822.48 647.224ZM1822.48 644.728C1823.82 644.728 1824.48 643.56 1824.48 641.4C1824.48 639.24 1823.82 638.072 1822.48 638.072C1821.13 638.072 1820.48 639.24 1820.48 641.4C1820.48 643.56 1821.13 644.728 1822.48 644.728ZM1827.36 635.8H1834.72V637.944L1831.08 647H1828.36L1831.88 638.264H1827.36V635.8Z" fill="white"/>
<path d="M2029.56 639.736C2031.64 639.736 2033.4 641.016 2033.4 643.48C2033.4 645.944 2031.48 647.224 2029.32 647.224C2027.54 647.224 2026.01 646.472 2025.32 644.824L2027.53 643.544C2027.78 644.28 2028.26 644.728 2029.32 644.728C2030.38 644.728 2030.84 644.168 2030.84 643.48C2030.84 642.792 2030.38 642.232 2029.4 642.232H2025.9L2026.36 635.8H2032.84V638.2H2028.76L2028.65 639.736H2029.56ZM2039.58 640.344C2040.95 640.824 2041.96 641.928 2041.96 643.48C2041.96 645.944 2040.04 647.224 2037.88 647.224C2036.18 647.224 2034.65 646.472 2033.96 644.824L2036.17 643.544C2036.42 644.28 2036.9 644.728 2037.88 644.728C2038.94 644.728 2039.4 644.168 2039.4 643.48C2039.4 642.792 2038.94 642.232 2037.88 642.232H2037.35L2036.38 640.776L2038.41 638.2H2034.31V635.8H2041.51V637.88L2039.58 640.344ZM2047.48 647.224C2044.58 647.224 2042.92 644.856 2042.92 641.4C2042.92 637.944 2044.58 635.576 2047.48 635.576C2050.37 635.576 2052.04 637.944 2052.04 641.4C2052.04 644.856 2050.37 647.224 2047.48 647.224ZM2047.48 644.728C2048.82 644.728 2049.48 643.56 2049.48 641.4C2049.48 639.24 2048.82 638.072 2047.48 638.072C2046.13 638.072 2045.48 639.24 2045.48 641.4C2045.48 643.56 2046.13 644.728 2047.48 644.728ZM2059.76 641.16C2060.71 641.768 2061.22 642.744 2061.22 643.848C2061.22 645.896 2059.75 647.224 2057.11 647.224C2054.47 647.224 2053 645.896 2053 643.848C2053 642.744 2053.51 641.768 2054.45 641.16C2053.8 640.648 2053.38 639.912 2053.38 638.904C2053.38 636.728 2055.04 635.576 2057.11 635.576C2059.17 635.576 2060.84 636.728 2060.84 638.904C2060.84 639.912 2060.42 640.648 2059.76 641.16ZM2057.11 637.976C2056.39 637.976 2055.94 638.44 2055.94 639.064C2055.94 639.688 2056.39 640.152 2057.11 640.152C2057.83 640.152 2058.28 639.688 2058.28 639.064C2058.28 638.44 2057.83 637.976 2057.11 637.976ZM2057.11 644.824C2058 644.824 2058.66 644.328 2058.66 643.48C2058.66 642.632 2058 642.136 2057.11 642.136C2056.21 642.136 2055.56 642.632 2055.56 643.48C2055.56 644.328 2056.21 644.824 2057.11 644.824Z" fill="white"/>
<path d="M2476.56 639.736C2478.64 639.736 2480.4 641.016 2480.4 643.48C2480.4 645.944 2478.48 647.224 2476.32 647.224C2474.54 647.224 2473.01 646.472 2472.32 644.824L2474.53 643.544C2474.78 644.28 2475.26 644.728 2476.32 644.728C2477.38 644.728 2477.84 644.168 2477.84 643.48C2477.84 642.792 2477.38 642.232 2476.4 642.232H2472.9L2473.36 635.8H2479.84V638.2H2475.76L2475.65 639.736H2476.56ZM2486.58 640.344C2487.95 640.824 2488.96 641.928 2488.96 643.48C2488.96 645.944 2487.04 647.224 2484.88 647.224C2483.18 647.224 2481.65 646.472 2480.96 644.824L2483.17 643.544C2483.42 644.28 2483.9 644.728 2484.88 644.728C2485.94 644.728 2486.4 644.168 2486.4 643.48C2486.4 642.792 2485.94 642.232 2484.88 642.232H2484.35L2483.38 640.776L2485.41 638.2H2481.31V635.8H2488.51V637.88L2486.58 640.344ZM2494.48 647.224C2491.58 647.224 2489.92 644.856 2489.92 641.4C2489.92 637.944 2491.58 635.576 2494.48 635.576C2497.37 635.576 2499.04 637.944 2499.04 641.4C2499.04 644.856 2497.37 647.224 2494.48 647.224ZM2494.48 644.728C2495.82 644.728 2496.48 643.56 2496.48 641.4C2496.48 639.24 2495.82 638.072 2494.48 638.072C2493.13 638.072 2492.48 639.24 2492.48 641.4C2492.48 643.56 2493.13 644.728 2494.48 644.728ZM2508.16 639.528C2508.16 640.392 2507.92 641.176 2507.5 641.8L2504.08 647H2501.13L2503.56 643.464C2501.34 643.288 2499.84 641.704 2499.84 639.528C2499.84 637.208 2501.53 635.576 2504 635.576C2506.48 635.576 2508.16 637.208 2508.16 639.528ZM2502.4 639.528C2502.4 640.504 2503.15 641.08 2504 641.08C2504.86 641.08 2505.6 640.52 2505.6 639.528C2505.6 638.536 2504.86 637.976 2504 637.976C2503.15 637.976 2502.4 638.552 2502.4 639.528Z" fill="white"/>
<path d="M662 323.5V472" stroke="#BDBDBD" stroke-width="6"/>
<path d="M281 341V460H164H47V341H281Z" fill="#3A3A3A"/>
<path d="M53.2376 462H43V341H280V462H82.4147" stroke="#BDBDBD" stroke-width="6"/>
<rect x="102" y="458.411" width="52.5814" height="133" transform="rotate(-90 102 458.411)" fill="#5F6DEC"/>
<rect x="102" y="396.55" width="51.5504" height="133" transform="rotate(-90 102 396.55)" fill="#5F6DEC"/>
<path d="M102 406.067V400.833V395.598M102 406.067V432.239M102 406.067H115.3M102 395.598V370.299M102 395.598H115.3M235 395.598V406.067M235 395.598V370.299M235 395.598H222.723M235 406.067V432.239M235 406.067H222.723M102 432.239V458.411H115.3M102 432.239H155.2M235 432.239V458.411H222.723M235 432.239H182.41M235 370.299V345H222.723M235 370.299H102M102 370.299L102 345H115.3M168.5 395.598V345M168.5 395.598H182.41M168.5 395.598H155.2M168.5 345H182.41M168.5 345H155.2M182.41 345H196.123M182.41 345V370.299V395.598M182.41 395.598H196.123M196.123 395.598H209.447M196.123 395.598V370.299V345M196.123 345H209.447M209.447 345H222.723M209.447 345V370.299V395.598M209.447 395.598H222.723M222.723 395.598V345M155.2 395.598V345M155.2 395.598H141.833M155.2 345H141.833M141.833 345H128.6M141.833 345V370.299V395.598M141.833 395.598H128.6M128.6 395.598V345M128.6 395.598H115.3M128.6 345H115.3M115.3 345V395.598M222.723 406.067V458.411M222.723 406.067H209.447M222.723 458.411H209.447M209.447 458.411V406.067M209.447 458.411H196.123M209.447 406.067H196.123M196.123 406.067V458.411M196.123 406.067H182.41M196.123 458.411H182.41M182.41 458.411V432.239M182.41 458.411H168.5M182.41 432.239V406.067M182.41 432.239H168.5M182.41 406.067H168.5M168.5 432.239V406.067M168.5 432.239V458.411M168.5 432.239H155.2M168.5 406.067H155.2M168.5 458.411H155.2M155.2 458.411V432.239M155.2 458.411H141.833M155.2 432.239V406.067M155.2 406.067H141.833M141.833 406.067V458.411M141.833 406.067H128.6M141.833 458.411H128.6M128.6 458.411V406.067M128.6 458.411H115.3M128.6 406.067H115.3M115.3 406.067V458.411" stroke="#9C9C9F" stroke-width="2"/>
</svg>
