<svg width="3982" height="1681" viewBox="0 0 3982 1681" fill="none" xmlns="http://www.w3.org/2000/svg">
<rect width="3982" height="1681" fill="white"/>
<rect x="285" y="783" width="425" height="236" fill="#3A3A3A"/>
<rect x="282" y="1010" width="504" height="252" fill="#3A3A3A"/>
<rect x="2935" y="731" width="623" height="531" fill="#3A3A3A"/>
<rect x="3556" y="770" width="135" height="321" fill="#3A3A3A"/>
<path d="M712 1008.5V731L2958.5 732V1262H784.5V1008.5H712Z" fill="#3A3A3A"/>
<path d="M281.5 1262.5V782H711V731H3556.5V773.5H3691V1090.5H3556.5V1262.5H281.5Z" stroke="#BDBDBD" stroke-width="6"/>
<path d="M711 779V1009H586" stroke="#BDBDBD" stroke-width="6"/>
<path d="M533.5 1010.5H279.5" stroke="#BDBDBD" stroke-width="6"/>
<path d="M2956.5 732V918.5" stroke="#BDBDBD" stroke-width="6"/>
<path d="M2957.5 987.5V1263" stroke="#BDBDBD" stroke-width="6"/>
<path d="M3557.5 774V853" stroke="#BDBDBD" stroke-width="6"/>
<path d="M3560 900.5V1085.5" stroke="#BDBDBD" stroke-width="6"/>
<path d="M711 1009H786V1111" stroke="#BDBDBD" stroke-width="6"/>
<path d="M786 1167V1263" stroke="#BDBDBD" stroke-width="6"/>
<path d="M355 870V785.5H586V870H355Z" fill="#5F6DEC"/>
<path d="M586 827.794V870H564.677M586 827.794V785.588H564.677M586 827.794H355M355 827.794V785.588H378.1M355 827.794V870H378.1M470.5 870V785.588M470.5 870H494.659M470.5 870H447.4M470.5 785.588H494.659M470.5 785.588H447.4M494.659 785.588H518.477M494.659 785.588V827.794V870M494.659 870H518.477M518.477 870H541.619M518.477 870V827.794V785.588M518.477 785.588H541.619M541.619 785.588H564.677M541.619 785.588V827.794V870M541.619 870H564.677M564.677 870V785.588M447.4 870V785.588M447.4 870H424.183M447.4 785.588H424.183M424.183 785.588H401.2M424.183 785.588V827.794V870M424.183 870H401.2M401.2 870V785.588M401.2 870H378.1M401.2 785.588H378.1M378.1 785.588V870" stroke="#9C9C9F" stroke-width="2"/>
<path d="M3603 815H3687.5V1046H3603V815Z" fill="#5F6DEC"/>
<path d="M3645.21 1046H3603V1024.68M3645.21 1046H3687.41V1024.68M3645.21 1046V815M3645.21 815H3687.41V838.1M3645.21 815H3603V838.1M3603 930.5H3687.41M3603 930.5V954.659M3603 930.5V907.4M3687.41 930.5V954.659M3687.41 930.5V907.4M3687.41 954.659V978.477M3687.41 954.659H3645.21H3603M3603 954.659V978.477M3603 978.477V1001.62M3603 978.477H3645.21H3687.41M3687.41 978.477V1001.62M3687.41 1001.62V1024.68M3687.41 1001.62H3645.21H3603M3603 1001.62V1024.68M3603 1024.68H3687.41M3603 907.4H3687.41M3603 907.4V884.183M3687.41 907.4V884.183M3687.41 884.183V861.2M3687.41 884.183H3645.21H3603M3603 884.183V861.2M3603 861.2H3687.41M3603 861.2V838.1M3687.41 861.2V838.1M3687.41 838.1H3603" stroke="#9C9C9F" stroke-width="2"/>
</svg>
