<svg width="2845" height="1062" viewBox="0 0 2845 1062" fill="none" xmlns="http://www.w3.org/2000/svg">
<path d="M43 341V730.5L2687.5 741.5V593.5H2803.5V354.5H2687.5V328.5L402 320V341H43Z" fill="#202125" stroke="#BDBDBD" stroke-width="6"/>
<path d="M451 729.5V545.5H777V729.5H451Z" fill="#3A3A3A"/>
<path d="M476.5 542.5H450.5V731.5H665V621" stroke="#BDBDBD" stroke-width="6"/>
<path d="M664.5 584.5V543H511.5" stroke="#BDBDBD" stroke-width="6"/>
<path d="M664.5 543H778V733H664.5" stroke="#BDBDBD" stroke-width="6"/>
<path d="M43 531.5H123.5L409.5 531V542.5H449.5V731H44L43 531.5Z" fill="#3A3A3A"/>
<path d="M123.5 528.5H43L44 731H449.5V542.5H409.5V528H162.5" stroke="#BDBDBD" stroke-width="6"/>
<path d="M2454.5 657H2501.5H2533H2564.5V523.5H2687V355V327.5H2454.5V657Z" fill="#3A3A3A"/>
<path d="M2501.5 661H2454.5V327.5H2687V355V523.5H2564.5V661H2533" stroke="#BDBDBD" stroke-width="6"/>
<rect x="2690" y="397" width="51" height="129" fill="#5F6DEC"/>
<rect x="2750" y="397" width="50" height="129" fill="#5F6DEC"/>
<path d="M2740.77 397H2745.85H2750.92M2740.77 397H2715.38M2740.77 397V409.9M2750.92 397H2775.46M2750.92 397V409.9M2750.92 526H2740.77M2750.92 526H2775.46M2750.92 526V514.092M2740.77 526H2715.38M2740.77 526V514.092M2715.38 397H2690V409.9M2715.38 397V448.6M2715.38 526H2690V514.092M2715.38 526V474.991M2775.46 526H2800V514.092M2775.46 526V397M2775.46 397H2800V409.9M2750.92 461.5H2800M2750.92 461.5V474.991M2750.92 461.5V448.6M2800 461.5V474.991M2800 461.5V448.6M2800 474.991V488.292M2800 474.991H2775.46H2750.92M2750.92 474.991V488.292M2750.92 488.292V501.216M2750.92 488.292H2775.46H2800M2800 488.292V501.216M2800 501.216V514.092M2800 501.216H2775.46H2750.92M2750.92 501.216V514.092M2750.92 514.092H2800M2750.92 448.6H2800M2750.92 448.6V435.635M2800 448.6V435.635M2800 435.635V422.8M2800 435.635H2775.46H2750.92M2750.92 435.635V422.8M2750.92 422.8H2800M2750.92 422.8V409.9M2800 422.8V409.9M2800 409.9H2750.92M2740.77 514.092H2690M2740.77 514.092V501.216M2690 514.092V501.216M2690 501.216H2740.77M2690 501.216V488.292M2740.77 501.216V488.292M2740.77 488.292H2690M2740.77 488.292V474.991M2690 488.292V474.991M2690 474.991H2715.38M2690 474.991V461.5M2715.38 474.991H2740.77M2715.38 474.991V461.5M2740.77 474.991V461.5M2715.38 461.5H2740.77M2715.38 461.5H2690M2715.38 461.5V448.6M2740.77 461.5V448.6M2690 461.5V448.6M2690 448.6H2715.38M2690 448.6V435.635M2715.38 448.6H2740.77M2740.77 448.6V435.635M2740.77 435.635H2690M2740.77 435.635V422.8M2690 435.635V422.8M2690 422.8H2740.77M2690 422.8V409.9M2740.77 422.8V409.9M2740.77 409.9H2690" stroke="#9C9C9F" stroke-width="2"/>
<rect x="2007" y="326" width="447" height="329" fill="#3A3A3A"/>
<path d="M2155.5 660H2007L2004 326H2453.5V660H2192" stroke="#BDBDBD" stroke-width="6"/>
<rect x="1783" y="326" width="224" height="329" fill="#3A3A3A"/>
<path d="M1879 659.5H1783.5V324.5H2003.5L2007.5 659.5H1909.5" stroke="#BDBDBD" stroke-width="6"/>
<rect x="1560" y="324" width="220" height="331" fill="#3A3A3A"/>
<path d="M1654 659H1559.5V324.5H1783V659H1685" stroke="#BDBDBD" stroke-width="6"/>
<rect x="1339" y="324" width="220" height="331" fill="#3A3A3A"/>
<path d="M1434 658.5H1339.5V322.5H1559V658.5H1463" stroke="#BDBDBD" stroke-width="6"/>
<path d="M1227 324H1339V654H1227V324Z" fill="#3A3A3A"/>
<path d="M1297 658.5H1226.5V322.5H1339V658.5H1322.5" stroke="#BDBDBD" stroke-width="6"/>
<rect x="889" y="324" width="337" height="330" fill="#3A3A3A"/>
<path d="M1025 658H890V324H1226V658H1057.5" stroke="#BDBDBD" stroke-width="6"/>
<rect x="772" y="321" width="114" height="146" fill="#3A3A3A"/>
<path d="M842.5 470.5H772V322H889V470.5H867.5" stroke="#BDBDBD" stroke-width="6"/>
<rect x="552" y="320" width="220" height="147" fill="#3A3A3A"/>
<path d="M576.5 470H551.5V321.5H771.5V470H600" stroke="#BDBDBD" stroke-width="6"/>
<rect x="280" y="341" width="122" height="90" fill="#3A3A3A"/>
<path d="M333.5 433.5H279.5V341H402.5V433.5H372.5" stroke="#BDBDBD" stroke-width="6"/>
<path d="M281 341V459.5H164.5H48V341H281Z" fill="#3A3A3A"/>
<path d="M53.2376 462H43V341H280V462H82.4147" stroke="#BDBDBD" stroke-width="6"/>
<rect x="402" y="320" width="146" height="147" fill="#3A3A3A"/>
<path d="M450 470H403V321H550.5V470H481.5" stroke="#BDBDBD" stroke-width="6"/>
<rect x="99.5" y="458.479" width="53.0769" height="129" transform="rotate(-90 99.5 458.479)" fill="#5F6DEC"/>
<rect x="99.5" y="396.036" width="52.0362" height="129" transform="rotate(-90 99.5 396.036)" fill="#5F6DEC"/>
<path d="M99 406.163V400.88V395.596M99 406.163V432.582M99 406.163H111.9M99 395.596V370.058M99 395.596H111.9M228 395.596V406.163M228 395.596V370.058M228 395.596H216.092M228 406.163V432.582M228 406.163H216.092M99 432.582V459H111.9M99 432.582H150.6M228 432.582V459H216.092M228 432.582H176.991M228 370.058V344.52H216.092M228 370.058H99M99 370.058L99 344.52H111.9M163.5 395.596V344.52M163.5 395.596H176.991M163.5 395.596H150.6M163.5 344.52H176.991M163.5 344.52H150.6M176.991 344.52H190.292M176.991 344.52V370.058V395.596M176.991 395.596H190.292M190.292 395.596H203.216M190.292 395.596V370.058V344.52M190.292 344.52H203.216M203.216 344.52H216.092M203.216 344.52V370.058V395.596M203.216 395.596H216.092M216.092 395.596V344.52M150.6 395.596V344.52M150.6 395.596H137.635M150.6 344.52H137.635M137.635 344.52H124.8M137.635 344.52V370.058V395.596M137.635 395.596H124.8M124.8 395.596V344.52M124.8 395.596H111.9M124.8 344.52H111.9M111.9 344.52V395.596M216.092 406.163V459M216.092 406.163H203.216M216.092 459H203.216M203.216 459V406.163M203.216 459H190.292M203.216 406.163H190.292M190.292 406.163V459M190.292 406.163H176.991M190.292 459H176.991M176.991 459V432.582M176.991 459H163.5M176.991 432.582V406.163M176.991 432.582H163.5M176.991 406.163H163.5M163.5 432.582V406.163M163.5 432.582V459M163.5 432.582H150.6M163.5 406.163H150.6M163.5 459H150.6M150.6 459V432.582M150.6 459H137.635M150.6 432.582V406.163M150.6 406.163H137.635M137.635 406.163V459M137.635 406.163H124.8M137.635 459H124.8M124.8 459V406.163M124.8 459H111.9M124.8 406.163H111.9M111.9 406.163V459" stroke="#9C9C9F" stroke-width="2"/>
<path d="M662 323.5V472" stroke="#BDBDBD" stroke-width="6"/>
</svg>
