<svg width="2871" height="1588" viewBox="0 0 2871 1588" fill="none" xmlns="http://www.w3.org/2000/svg">
<g clip-path="url(#clip0_13_150)">
<path d="M524.5 247.5H856.5V409H653.5V810.5H928.5V1019H1353.5V707.5H1510L1518 1014L1935 1019V804.5H2210.5V312H2026V157.5H2354.5V1140H524.5V247.5Z" fill="#202125"/>
<rect x="191" y="247" width="337" height="225" fill="#3A3A3A"/>
<rect x="192" y="477" width="333" height="385" fill="#3A3A3A"/>
<rect x="192" y="866" width="333" height="450" fill="#3A3A3A"/>
<rect x="529" y="1135" width="247" height="228" fill="#3A3A3A"/>
<rect x="783" y="1137" width="222" height="224" fill="#3A3A3A"/>
<rect x="1007" y="1137" width="219" height="224" fill="#3A3A3A"/>
<rect x="1226" y="1138" width="219" height="223" fill="#3A3A3A"/>
<rect x="1437" y="1134" width="228" height="227" fill="#3A3A3A"/>
<rect x="1665" y="1133" width="222" height="228" fill="#3A3A3A"/>
<rect x="2115" y="1136" width="233" height="228" fill="#3A3A3A"/>
<rect x="1887" y="1137" width="226" height="225" fill="#3A3A3A"/>
<rect x="2351" y="888" width="326" height="428" fill="#3A3A3A"/>
<rect x="2348" y="400" width="328" height="488" fill="#3A3A3A"/>
<rect x="2347" y="158" width="329" height="237" fill="#3A3A3A"/>
<rect x="2062" y="311" width="152" height="245" fill="#3A3A3A"/>
<rect x="2061" y="556" width="153" height="109" fill="#3A3A3A"/>
<rect x="2062" y="666" width="152" height="138" fill="#3A3A3A"/>
<rect x="650" y="412" width="161" height="140" fill="#3A3A3A"/>
<rect x="652" y="552" width="159" height="123" fill="#3A3A3A"/>
<rect x="652" y="673" width="159" height="135" fill="#3A3A3A"/>
<path d="M928.5 1019.5V810.5H1077V735H1351L1354.5 1019.5H928.5Z" fill="#3A3A3A"/>
<path d="M1513.5 1017V735H1783V806L1937.5 808.5V1017H1513.5Z" fill="#3A3A3A"/>
<path d="M191 862H525.5V809.5" stroke="#BDBDBD" stroke-width="6"/>
<path d="M525.5 863.5V1049" stroke="#BDBDBD" stroke-width="6"/>
<path d="M528 1106V1322" stroke="#BDBDBD" stroke-width="6"/>
<path d="M526.5 1135H654" stroke="#BDBDBD" stroke-width="6"/>
<path d="M692 1133.5H776V1364" stroke="#BDBDBD" stroke-width="6"/>
<path d="M776 1133.5H874.5" stroke="#BDBDBD" stroke-width="6"/>
<path d="M918 1133H1005.5V1364" stroke="#BDBDBD" stroke-width="6"/>
<path d="M1007 1133.5H1115.5H1159H1226V1364" stroke="#BDBDBD" stroke-width="6"/>
<path d="M1227.5 1134H1446.5V1170" stroke="#BDBDBD" stroke-width="6"/>
<path d="M1446.5 1219V1361" stroke="#BDBDBD" stroke-width="6"/>
<path d="M1445 1133.5H1522" stroke="#BDBDBD" stroke-width="6"/>
<path d="M1587.5 1132H1664.5V1248" stroke="#BDBDBD" stroke-width="6"/>
<path d="M1664.5 1283V1364" stroke="#BDBDBD" stroke-width="6"/>
<path d="M1665.5 1133.5H1886.5V1367" stroke="#BDBDBD" stroke-width="6"/>
<path d="M1888 1135H1970.5" stroke="#BDBDBD" stroke-width="6"/>
<path d="M2015.5 1136.5H2114V1362.5" stroke="#BDBDBD" stroke-width="6"/>
<path d="M2115.5 1136.5H2195.5" stroke="#BDBDBD" stroke-width="6"/>
<path d="M2242 1136.5H2348V1320.5" stroke="#BDBDBD" stroke-width="6"/>
<path d="M2348.5 1107V1136.5" stroke="#BDBDBD" stroke-width="6"/>
<path d="M2349 889L2347.5 1052" stroke="#BDBDBD" stroke-width="6"/>
<path d="M2351 889.5H2676" stroke="#BDBDBD" stroke-width="6"/>
<path d="M2349 889.5V737" stroke="#BDBDBD" stroke-width="6"/>
<path d="M2348 676V489" stroke="#BDBDBD" stroke-width="6"/>
<path d="M2348 432.5V373" stroke="#BDBDBD" stroke-width="6"/>
<path d="M2351 399H2677.5" stroke="#BDBDBD" stroke-width="6"/>
<path d="M2346.5 327.5V155" stroke="#BDBDBD" stroke-width="6"/>
<path d="M2060.5 309.5H2252" stroke="#BDBDBD" stroke-width="6"/>
<path d="M2319 312.5H2348M2214.5 312.5V340" stroke="#BDBDBD" stroke-width="6"/>
<path d="M2216 384.5V592" stroke="#BDBDBD" stroke-width="6"/>
<path d="M2214.5 631V719.5" stroke="#BDBDBD" stroke-width="6"/>
<path d="M2217 763V806H2060.5" stroke="#BDBDBD" stroke-width="6"/>
<path d="M2059 664.5H2214.5" stroke="#BDBDBD" stroke-width="6"/>
<path d="M2061 556L2214.5 555.5" stroke="#BDBDBD" stroke-width="6"/>
<path d="M2217 806H2262" stroke="#BDBDBD" stroke-width="6"/>
<path d="M2298 806.5H2351.5" stroke="#BDBDBD" stroke-width="6"/>
<path d="M526.5 1017H555.5" stroke="#BDBDBD" stroke-width="6"/>
<path d="M628 1020H1381" stroke="#BDBDBD" stroke-width="6"/>
<path d="M1436.5 1018.5H2261" stroke="#BDBDBD" stroke-width="6"/>
<path d="M2323 1017H2348" stroke="#BDBDBD" stroke-width="6"/>
<path d="M1940 807.5V1021.5" stroke="#BDBDBD" stroke-width="6"/>
<path d="M1511.5 735.5L1512 950.5" stroke="#BDBDBD" stroke-width="6"/>
<path d="M1512 992.5V1018.5" stroke="#BDBDBD" stroke-width="6"/>
<path d="M1353.5 735.5V944.5" stroke="#BDBDBD" stroke-width="6"/>
<path d="M1355 985.5V1021.5" stroke="#BDBDBD" stroke-width="6"/>
<path d="M927 810V1017" stroke="#BDBDBD" stroke-width="6"/>
<path d="M812 411V809H1077V734.5H1353V706.5H1512V734.5H1783.5V806H2059.5V309.5H2025.5V157.5H2677V1319H2348V1363H527.5V1319H191.5V247H856V411H812Z" stroke="#BDBDBD" stroke-width="6"/>
<path d="M815 410.5H625" stroke="#BDBDBD" stroke-width="6"/>
<path d="M558.5 407.5H528V248.5" stroke="#BDBDBD" stroke-width="6"/>
<path d="M192.5 474.5H526.5" stroke="#BDBDBD" stroke-width="6"/>
<path d="M526.5 471.5V747.5" stroke="#BDBDBD" stroke-width="6"/>
<path d="M525 789V808H554" stroke="#BDBDBD" stroke-width="6"/>
<path d="M621 809.5H651.5V743.5" stroke="#BDBDBD" stroke-width="6"/>
<path d="M648.5 701V660" stroke="#BDBDBD" stroke-width="6"/>
<path d="M648.5 603.5V551.5H725" stroke="#BDBDBD" stroke-width="6"/>
<path d="M754 553H811" stroke="#BDBDBD" stroke-width="6"/>
<path d="M651 674.5H812.5" stroke="#BDBDBD" stroke-width="6"/>
<path d="M649.5 413.5L649 555.5" stroke="#BDBDBD" stroke-width="6"/>
<path d="M651.5 809.5H814.5" stroke="#BDBDBD" stroke-width="6"/>
<path d="M627.292 407.626V333.693H794V407.626H627.292Z" fill="#5F6DEC"/>
<rect x="626.648" y="321.234" width="69.255" height="167.352" transform="rotate(-90 626.648 321.234)" fill="#5F6DEC"/>
<path d="M626 334.712V327.68V320.648M626 334.712V369.872M626 334.712H642.735M626 320.648V286.659M626 320.648H642.735M793.352 320.648V334.712M793.352 320.648V286.659M793.352 320.648H777.904M793.352 334.712V369.872M793.352 334.712H777.904M626 369.872V406.978H642.735M626 369.872H692.941M793.352 369.872V406.978H777.904M793.352 369.872H727.178M793.352 286.659V251.374H777.904M793.352 286.659H626M626 286.659V251.374H642.735M709.676 320.648V251.374M709.676 320.648H727.178M709.676 320.648H692.941M709.676 251.374H727.178M709.676 251.374H692.941M727.178 251.374H744.434M727.178 251.374V286.659V320.648M727.178 320.648H744.434M744.434 320.648H761.199M744.434 320.648V286.659V251.374M744.434 251.374H761.199M761.199 251.374H777.904M761.199 251.374V286.659V320.648M761.199 320.648H777.904M777.904 320.648V251.374M692.941 320.648V251.374M692.941 320.648H676.121M692.941 251.374H676.121M676.121 251.374H659.47M676.121 251.374V286.659V320.648M676.121 320.648H659.47M659.47 320.648V251.374M659.47 320.648H642.735M659.47 251.374H642.735M642.735 251.374V320.648M777.904 334.712V406.978M777.904 334.712H761.199M777.904 406.978H761.199M761.199 406.978V334.712M761.199 406.978H744.434M761.199 334.712H744.434M744.434 334.712V406.978M744.434 334.712H727.178M744.434 406.978H727.178M727.178 406.978V369.872M727.178 406.978H709.676M727.178 369.872V334.712M727.178 369.872H709.676M727.178 334.712H709.676M709.676 369.872V334.712M709.676 369.872V406.978M709.676 369.872H692.941M709.676 334.712H692.941M709.676 406.978H692.941M692.941 406.978V369.872M692.941 406.978H676.121M692.941 369.872V334.712M692.941 334.712H676.121M676.121 334.712V406.978M676.121 334.712H659.47M676.121 406.978H659.47M659.47 406.978V334.712M659.47 406.978H642.735M659.47 334.712H642.735M642.735 334.712V406.978" stroke="#9C9C9F" stroke-width="2"/>
<path d="M2095.21 307.951V238.419H2252V307.951H2095.21Z" fill="#5F6DEC"/>
<rect x="2094.61" y="226.701" width="65.1326" height="157.39" transform="rotate(-90 2094.61 226.701)" fill="#5F6DEC"/>
<path d="M2094 239.377V232.763V226.15M2094 239.377V272.444M2094 239.377H2109.74M2094 226.15V194.185M2094 226.15H2109.74M2251.39 226.15V239.377M2251.39 226.15V194.185M2251.39 226.15H2236.86M2251.39 239.377V272.444M2251.39 239.377H2236.86M2094 272.444V307.341H2109.74M2094 272.444H2156.96M2251.39 272.444V307.341H2236.86M2251.39 272.444H2189.16M2251.39 194.185V161H2236.86M2251.39 194.185H2094M2094 194.185V161H2109.74M2172.7 226.15V161M2172.7 226.15H2189.16M2172.7 226.15H2156.96M2172.7 161H2189.16M2172.7 161H2156.96M2189.16 161H2205.38M2189.16 161V194.185V226.15M2189.16 226.15H2205.38M2205.38 226.15H2221.15M2205.38 226.15V194.185V161M2205.38 161H2221.15M2221.15 161H2236.86M2221.15 161V194.185V226.15M2221.15 226.15H2236.86M2236.86 226.15V161M2156.96 226.15V161M2156.96 226.15H2141.14M2156.96 161H2141.14M2141.14 161H2125.48M2141.14 161V194.185V226.15M2141.14 226.15H2125.48M2125.48 226.15V161M2125.48 226.15H2109.74M2125.48 161H2109.74M2109.74 161V226.15M2236.86 239.377V307.341M2236.86 239.377H2221.15M2236.86 307.341H2221.15M2221.15 307.341V239.377M2221.15 307.341H2205.38M2221.15 239.377H2205.38M2205.38 239.377V307.341M2205.38 239.377H2189.16M2205.38 307.341H2189.16M2189.16 307.341V272.444M2189.16 307.341H2172.7M2189.16 272.444V239.377M2189.16 272.444H2172.7M2189.16 239.377H2172.7M2172.7 272.444V239.377M2172.7 272.444V307.341M2172.7 272.444H2156.96M2172.7 239.377H2156.96M2172.7 307.341H2156.96M2156.96 307.341V272.444M2156.96 307.341H2141.14M2156.96 272.444V239.377M2156.96 239.377H2141.14M2141.14 239.377V307.341M2141.14 239.377H2125.48M2141.14 307.341H2125.48M2125.48 307.341V239.377M2125.48 307.341H2109.74M2125.48 239.377H2109.74M2109.74 239.377L2109.74 307.341" stroke="#9C9C9F" stroke-width="2"/>
<path d="M1509.25 929.725H1436.27V765.151H1509.25V929.725Z" fill="#5F6DEC"/>
<rect x="1423.97" y="930.36" width="68.3686" height="165.21" transform="rotate(-180 1423.97 930.36)" fill="#5F6DEC"/>
<path d="M1437.27 931H1430.33H1423.39M1437.27 931H1471.98M1437.27 931V914.479M1423.39 931H1389.83M1423.39 931V914.479M1423.39 765.79H1437.27M1423.39 765.79H1389.83M1423.39 765.79V781.04M1437.27 765.79H1471.98M1437.27 765.79V781.04M1471.98 931H1508.61V914.479M1471.98 931V864.916M1471.98 765.79H1508.61V781.04M1471.98 765.79V831.117M1389.83 765.79H1355V781.04M1389.83 765.79V931M1389.83 931H1355V914.479M1423.39 848.395H1355M1423.39 848.395V831.117M1423.39 848.395V864.916M1355 848.395V831.117M1355 848.395V864.916M1355 831.117V814.082M1355 831.117H1389.83H1423.39M1423.39 831.117V814.082M1423.39 814.082V797.531M1423.39 814.082H1389.83H1355M1355 814.082V797.531M1355 797.531V781.04M1355 797.531H1389.83H1423.39M1423.39 797.531V781.04M1423.39 781.04H1355M1423.39 864.916H1355M1423.39 864.916V881.521M1355 864.916V881.521M1355 881.521V897.958M1355 881.521H1389.83H1423.39M1423.39 881.521V897.958M1423.39 897.958H1355M1423.39 897.958V914.479M1355 897.958V914.479M1355 914.479H1423.39M1437.27 781.04H1508.61M1437.27 781.04V797.531M1508.61 781.04V797.531M1508.61 797.531H1437.27M1508.61 797.531V814.082M1437.27 797.531V814.082M1437.27 814.082H1508.61M1437.27 814.082V831.117M1508.61 814.082V831.117M1508.61 831.117H1471.98M1508.61 831.117V848.395M1471.98 831.117H1437.27M1471.98 831.117V848.395M1437.27 831.117V848.395M1471.98 848.395H1437.27M1471.98 848.395H1508.61M1471.98 848.395V864.916M1437.27 848.395V864.916M1508.61 848.395V864.916M1508.61 864.916H1471.98M1508.61 864.916V881.521M1471.98 864.916H1437.27M1437.27 864.916V881.521M1437.27 881.521H1508.61M1437.27 881.521V897.958M1508.61 881.521V897.958M1508.61 897.958H1437.27M1508.61 897.958V914.479M1437.27 897.958V914.479M1437.27 914.479H1508.61" stroke="#9C9C9F" stroke-width="2"/>
<path d="M658.991 1017V920.948H875.576V1017H658.991Z" fill="#5F6DEC"/>
<rect x="658.153" y="904.761" width="89.975" height="217.421" transform="rotate(-90 658.153 904.761)" fill="#5F6DEC"/>
<path d="M657.312 922.271V913.135V903.999M657.312 922.271V967.951M657.312 922.271H679.055M657.312 903.999V859.842M657.312 903.999H679.055M874.733 903.999V922.271M874.733 903.999V859.842M874.733 903.999H854.664M874.733 922.271V967.951M874.733 922.271H854.664M657.312 967.951V1016.16H679.055M657.312 967.951H744.281M874.733 967.951V1016.16H854.664M874.733 967.951H788.762M874.733 859.842V814H854.664M874.733 859.842H657.312M657.312 859.842V814H679.055M766.023 903.999V814M766.023 903.999H788.762M766.023 903.999H744.281M766.023 814H788.762M766.023 814H744.281M788.762 814H811.18M788.762 814V859.842V903.999M788.762 903.999H811.18M811.18 903.999H832.962M811.18 903.999V859.842V814M811.18 814H832.962M832.962 814H854.664M832.962 814V859.842V903.999M832.962 903.999H854.664M854.664 903.999V814M744.281 903.999V814M744.281 903.999H722.429M744.281 814H722.429M722.429 814H700.797M722.429 814V859.842V903.999M722.429 903.999H700.797M700.797 903.999V814M700.797 903.999H679.055M700.797 814H679.055M679.055 814V903.999M854.664 922.271V1016.16M854.664 922.271H832.962M854.664 1016.16H832.962M832.962 1016.16V922.271M832.962 1016.16H811.18M832.962 922.271H811.18M811.18 922.271V1016.16M811.18 922.271H788.762M811.18 1016.16H788.762M788.762 1016.16V967.951M788.762 1016.16H766.023M788.762 967.951V922.271M788.762 967.951H766.023M788.762 922.271H766.023M766.023 967.951V922.271M766.023 967.951V1016.16M766.023 967.951H744.281M766.023 922.271H744.281M766.023 1016.16H744.281M744.281 1016.16V967.951M744.281 1016.16H722.429M744.281 967.951V922.271M744.281 922.271H722.429M722.429 922.271V1016.16M722.429 922.271H700.797M722.429 1016.16H700.797M700.797 1016.16V922.271M700.797 1016.16H679.055M700.797 922.271H679.055M679.055 922.271V1016.16" stroke="#9C9C9F" stroke-width="2"/>
<path d="M2001.68 1014V917.948H2218.26V1014H2001.68Z" fill="#5F6DEC"/>
<rect x="2000.84" y="901.76" width="89.975" height="217.421" transform="rotate(-90 2000.84 901.76)" fill="#5F6DEC"/>
<path d="M2000 919.271V910.135V900.999M2000 919.271V964.951M2000 919.271H2021.74M2000 900.999V856.842M2000 900.999H2021.74M2217.42 900.999V919.271M2217.42 900.999V856.842M2217.42 900.999H2197.35M2217.42 919.271V964.951M2217.42 919.271H2197.35M2000 964.951V1013.16H2021.74M2000 964.951H2086.97M2217.42 964.951V1013.16H2197.35M2217.42 964.951H2131.45M2217.42 856.842V811H2197.35M2217.42 856.842H2000M2000 856.842V811H2021.74M2108.71 900.999V811M2108.71 900.999H2131.45M2108.71 900.999H2086.97M2108.71 811H2131.45M2108.71 811H2086.97M2131.45 811H2153.87M2131.45 811V856.842V900.999M2131.45 900.999H2153.87M2153.87 900.999H2175.65M2153.87 900.999V856.842V811M2153.87 811H2175.65M2175.65 811H2197.35M2175.65 811V856.842V900.999M2175.65 900.999H2197.35M2197.35 900.999V811M2086.97 900.999V811M2086.97 900.999H2065.12M2086.97 811H2065.12M2065.12 811H2043.48M2065.12 811V856.842V900.999M2065.12 900.999H2043.48M2043.48 900.999V811M2043.48 900.999H2021.74M2043.48 811H2021.74M2021.74 811V900.999M2197.35 919.271V1013.16M2197.35 919.271H2175.65M2197.35 1013.16H2175.65M2175.65 1013.16V919.271M2175.65 1013.16H2153.87M2175.65 919.271H2153.87M2153.87 919.271V1013.16M2153.87 919.271H2131.45M2153.87 1013.16H2131.45M2131.45 1013.16V964.951M2131.45 1013.16H2108.71M2131.45 964.951V919.271M2131.45 964.951H2108.71M2131.45 919.271H2108.71M2108.71 964.951V919.271M2108.71 964.951V1013.16M2108.71 964.951H2086.97M2108.71 919.271H2086.97M2108.71 1013.16H2086.97M2086.97 1013.16V964.951M2086.97 1013.16H2065.12M2086.97 964.951V919.271M2086.97 919.271H2065.12M2065.12 919.271V1013.16M2065.12 919.271H2043.48M2065.12 1013.16H2043.48M2043.48 1013.16V919.271M2043.48 1013.16H2021.74M2043.48 919.271H2021.74M2021.74 919.271V1013.16" stroke="#9C9C9F" stroke-width="2"/>
<path d="M482.936 449.344C484.312 449.824 485.32 450.928 485.32 452.48C485.32 454.944 483.4 456.224 481.24 456.224C479.544 456.224 478.008 455.472 477.32 453.824L479.528 452.544C479.784 453.28 480.264 453.728 481.24 453.728C482.296 453.728 482.76 453.168 482.76 452.48C482.76 451.792 482.296 451.232 481.24 451.232H480.712L479.736 449.776L481.768 447.2H477.672V444.8H484.872V446.88L482.936 449.344ZM490.279 448.736C492.359 448.736 494.119 450.016 494.119 452.48C494.119 454.944 492.199 456.224 490.039 456.224C488.263 456.224 486.727 455.472 486.039 453.824L488.247 452.544C488.503 453.28 488.983 453.728 490.039 453.728C491.095 453.728 491.559 453.168 491.559 452.48C491.559 451.792 491.095 451.232 490.119 451.232H486.615L487.079 444.8H493.559V447.2H489.479L489.367 448.736H490.279ZM497.291 444.8H499.531V456H496.971V447.504L494.987 448.048L494.363 445.856L497.291 444.8ZM505.216 448.736C507.296 448.736 509.056 450.016 509.056 452.48C509.056 454.944 507.136 456.224 504.976 456.224C503.2 456.224 501.664 455.472 500.976 453.824L503.184 452.544C503.44 453.28 503.92 453.728 504.976 453.728C506.032 453.728 506.496 453.168 506.496 452.48C506.496 451.792 506.032 451.232 505.056 451.232H501.552L502.016 444.8H508.496V447.2H504.416L504.304 448.736H505.216Z" fill="white"/>
<path d="M482.936 834.344C484.312 834.824 485.32 835.928 485.32 837.48C485.32 839.944 483.4 841.224 481.24 841.224C479.544 841.224 478.008 840.472 477.32 838.824L479.528 837.544C479.784 838.28 480.264 838.728 481.24 838.728C482.296 838.728 482.76 838.168 482.76 837.48C482.76 836.792 482.296 836.232 481.24 836.232H480.712L479.736 834.776L481.768 832.2H477.672V829.8H484.872V831.88L482.936 834.344ZM490.279 833.736C492.359 833.736 494.119 835.016 494.119 837.48C494.119 839.944 492.199 841.224 490.039 841.224C488.263 841.224 486.727 840.472 486.039 838.824L488.247 837.544C488.503 838.28 488.983 838.728 490.039 838.728C491.095 838.728 491.559 838.168 491.559 837.48C491.559 836.792 491.095 836.232 490.119 836.232H486.615L487.079 829.8H493.559V832.2H489.479L489.367 833.736H490.279ZM497.291 829.8H499.531V841H496.971V832.504L494.987 833.048L494.363 830.856L497.291 829.8ZM509.776 836.84V839.208H508.656V841H506.064V839.208H500.976V836.84L504.544 829.8H507.296L503.728 836.84H506.064V834.44H508.656V836.84H509.776Z" fill="white"/>
<path d="M482.936 1127.34C484.312 1127.82 485.32 1128.93 485.32 1130.48C485.32 1132.94 483.4 1134.22 481.24 1134.22C479.544 1134.22 478.008 1133.47 477.32 1131.82L479.528 1130.54C479.784 1131.28 480.264 1131.73 481.24 1131.73C482.296 1131.73 482.76 1131.17 482.76 1130.48C482.76 1129.79 482.296 1129.23 481.24 1129.23H480.712L479.736 1127.78L481.768 1125.2H477.672V1122.8H484.872V1124.88L482.936 1127.34ZM490.279 1126.74C492.359 1126.74 494.119 1128.02 494.119 1130.48C494.119 1132.94 492.199 1134.22 490.039 1134.22C488.263 1134.22 486.727 1133.47 486.039 1131.82L488.247 1130.54C488.503 1131.28 488.983 1131.73 490.039 1131.73C491.095 1131.73 491.559 1131.17 491.559 1130.48C491.559 1129.79 491.095 1129.23 490.119 1129.23H486.615L487.079 1122.8H493.559V1125.2H489.479L489.367 1126.74H490.279ZM497.291 1122.8H499.531V1134H496.971V1125.5L494.987 1126.05L494.363 1123.86L497.291 1122.8ZM506.592 1127.34C507.968 1127.82 508.976 1128.93 508.976 1130.48C508.976 1132.94 507.056 1134.22 504.896 1134.22C503.2 1134.22 501.664 1133.47 500.976 1131.82L503.184 1130.54C503.44 1131.28 503.92 1131.73 504.896 1131.73C505.952 1131.73 506.416 1131.17 506.416 1130.48C506.416 1129.79 505.952 1129.23 504.896 1129.23H504.368L503.392 1127.78L505.424 1125.2H501.328V1122.8H508.528V1124.88L506.592 1127.34Z" fill="white"/>
<path d="M719.936 1159.34C721.312 1159.82 722.32 1160.93 722.32 1162.48C722.32 1164.94 720.4 1166.22 718.24 1166.22C716.544 1166.22 715.008 1165.47 714.32 1163.82L716.528 1162.54C716.784 1163.28 717.264 1163.73 718.24 1163.73C719.296 1163.73 719.76 1163.17 719.76 1162.48C719.76 1161.79 719.296 1161.23 718.24 1161.23H717.712L716.736 1159.78L718.768 1157.2H714.672V1154.8H721.872V1156.88L719.936 1159.34ZM727.279 1158.74C729.359 1158.74 731.119 1160.02 731.119 1162.48C731.119 1164.94 729.199 1166.22 727.039 1166.22C725.263 1166.22 723.727 1165.47 723.039 1163.82L725.247 1162.54C725.503 1163.28 725.983 1163.73 727.039 1163.73C728.095 1163.73 728.559 1163.17 728.559 1162.48C728.559 1161.79 728.095 1161.23 727.119 1161.23H723.615L724.079 1154.8H730.559V1157.2H726.479L726.367 1158.74H727.279ZM734.291 1154.8H736.531V1166H733.971V1157.5L731.987 1158.05L731.363 1155.86L734.291 1154.8ZM738.008 1166V1164.14L741.768 1160.24C742.424 1159.57 742.904 1158.91 742.904 1158.26C742.904 1157.55 742.456 1157.07 741.704 1157.07C740.92 1157.07 740.36 1157.58 740.056 1158.29L737.896 1157.02C738.616 1155.36 740.12 1154.58 741.672 1154.58C743.672 1154.58 745.464 1155.89 745.464 1158.14C745.464 1159.49 744.744 1160.64 743.72 1161.66L741.864 1163.54H745.624V1166H738.008Z" fill="white"/>
<path d="M947.936 1159.34C949.312 1159.82 950.32 1160.93 950.32 1162.48C950.32 1164.94 948.4 1166.22 946.24 1166.22C944.544 1166.22 943.008 1165.47 942.32 1163.82L944.528 1162.54C944.784 1163.28 945.264 1163.73 946.24 1163.73C947.296 1163.73 947.76 1163.17 947.76 1162.48C947.76 1161.79 947.296 1161.23 946.24 1161.23H945.712L944.736 1159.78L946.768 1157.2H942.672V1154.8H949.872V1156.88L947.936 1159.34ZM955.279 1158.74C957.359 1158.74 959.119 1160.02 959.119 1162.48C959.119 1164.94 957.199 1166.22 955.039 1166.22C953.263 1166.22 951.727 1165.47 951.039 1163.82L953.247 1162.54C953.503 1163.28 953.983 1163.73 955.039 1163.73C956.095 1163.73 956.559 1163.17 956.559 1162.48C956.559 1161.79 956.095 1161.23 955.119 1161.23H951.615L952.079 1154.8H958.559V1157.2H954.479L954.367 1158.74H955.279ZM962.291 1154.8H964.531V1166H961.971V1157.5L959.987 1158.05L959.363 1155.86L962.291 1154.8ZM968.744 1154.8H970.984V1166H968.424V1157.5L966.44 1158.05L965.816 1155.86L968.744 1154.8Z" fill="white"/>
<path d="M1167.94 1159.34C1169.31 1159.82 1170.32 1160.93 1170.32 1162.48C1170.32 1164.94 1168.4 1166.22 1166.24 1166.22C1164.54 1166.22 1163.01 1165.47 1162.32 1163.82L1164.53 1162.54C1164.78 1163.28 1165.26 1163.73 1166.24 1163.73C1167.3 1163.73 1167.76 1163.17 1167.76 1162.48C1167.76 1161.79 1167.3 1161.23 1166.24 1161.23H1165.71L1164.74 1159.78L1166.77 1157.2H1162.67V1154.8H1169.87V1156.88L1167.94 1159.34ZM1175.28 1158.74C1177.36 1158.74 1179.12 1160.02 1179.12 1162.48C1179.12 1164.94 1177.2 1166.22 1175.04 1166.22C1173.26 1166.22 1171.73 1165.47 1171.04 1163.82L1173.25 1162.54C1173.5 1163.28 1173.98 1163.73 1175.04 1163.73C1176.09 1163.73 1176.56 1163.17 1176.56 1162.48C1176.56 1161.79 1176.09 1161.23 1175.12 1161.23H1171.61L1172.08 1154.8H1178.56V1157.2H1174.48L1174.37 1158.74H1175.28ZM1182.29 1154.8H1184.53V1166H1181.97V1157.5L1179.99 1158.05L1179.36 1155.86L1182.29 1154.8ZM1190.7 1166.22C1187.8 1166.22 1186.14 1163.86 1186.14 1160.4C1186.14 1156.94 1187.8 1154.58 1190.7 1154.58C1193.59 1154.58 1195.26 1156.94 1195.26 1160.4C1195.26 1163.86 1193.59 1166.22 1190.7 1166.22ZM1190.7 1163.73C1192.04 1163.73 1192.7 1162.56 1192.7 1160.4C1192.7 1158.24 1192.04 1157.07 1190.7 1157.07C1189.35 1157.07 1188.7 1158.24 1188.7 1160.4C1188.7 1162.56 1189.35 1163.73 1190.7 1163.73Z" fill="white"/>
<path d="M1611.94 1159.34C1613.31 1159.82 1614.32 1160.93 1614.32 1162.48C1614.32 1164.94 1612.4 1166.22 1610.24 1166.22C1608.54 1166.22 1607.01 1165.47 1606.32 1163.82L1608.53 1162.54C1608.78 1163.28 1609.26 1163.73 1610.24 1163.73C1611.3 1163.73 1611.76 1163.17 1611.76 1162.48C1611.76 1161.79 1611.3 1161.23 1610.24 1161.23H1609.71L1608.74 1159.78L1610.77 1157.2H1606.67V1154.8H1613.87V1156.88L1611.94 1159.34ZM1619.28 1158.74C1621.36 1158.74 1623.12 1160.02 1623.12 1162.48C1623.12 1164.94 1621.2 1166.22 1619.04 1166.22C1617.26 1166.22 1615.73 1165.47 1615.04 1163.82L1617.25 1162.54C1617.5 1163.28 1617.98 1163.73 1619.04 1163.73C1620.09 1163.73 1620.56 1163.17 1620.56 1162.48C1620.56 1161.79 1620.09 1161.23 1619.12 1161.23H1615.61L1616.08 1154.8H1622.56V1157.2H1618.48L1618.37 1158.74H1619.28ZM1628.48 1166.22C1625.58 1166.22 1623.92 1163.86 1623.92 1160.4C1623.92 1156.94 1625.58 1154.58 1628.48 1154.58C1631.37 1154.58 1633.04 1156.94 1633.04 1160.4C1633.04 1163.86 1631.37 1166.22 1628.48 1166.22ZM1628.48 1163.73C1629.82 1163.73 1630.48 1162.56 1630.48 1160.4C1630.48 1158.24 1629.82 1157.07 1628.48 1157.07C1627.13 1157.07 1626.48 1158.24 1626.48 1160.4C1626.48 1162.56 1627.13 1163.73 1628.48 1163.73ZM1640.76 1160.16C1641.71 1160.77 1642.22 1161.74 1642.22 1162.85C1642.22 1164.9 1640.75 1166.22 1638.11 1166.22C1635.47 1166.22 1634 1164.9 1634 1162.85C1634 1161.74 1634.51 1160.77 1635.45 1160.16C1634.8 1159.65 1634.38 1158.91 1634.38 1157.9C1634.38 1155.73 1636.04 1154.58 1638.11 1154.58C1640.17 1154.58 1641.84 1155.73 1641.84 1157.9C1641.84 1158.91 1641.42 1159.65 1640.76 1160.16ZM1638.11 1156.98C1637.39 1156.98 1636.94 1157.44 1636.94 1158.06C1636.94 1158.69 1637.39 1159.15 1638.11 1159.15C1638.83 1159.15 1639.28 1158.69 1639.28 1158.06C1639.28 1157.44 1638.83 1156.98 1638.11 1156.98ZM1638.11 1163.82C1639 1163.82 1639.66 1163.33 1639.66 1162.48C1639.66 1161.63 1639 1161.14 1638.11 1161.14C1637.21 1161.14 1636.56 1161.63 1636.56 1162.48C1636.56 1163.33 1637.21 1163.82 1638.11 1163.82Z" fill="white"/>
<path d="M2047.94 1159.34C2049.31 1159.82 2050.32 1160.93 2050.32 1162.48C2050.32 1164.94 2048.4 1166.22 2046.24 1166.22C2044.54 1166.22 2043.01 1165.47 2042.32 1163.82L2044.53 1162.54C2044.78 1163.28 2045.26 1163.73 2046.24 1163.73C2047.3 1163.73 2047.76 1163.17 2047.76 1162.48C2047.76 1161.79 2047.3 1161.23 2046.24 1161.23H2045.71L2044.74 1159.78L2046.77 1157.2H2042.67V1154.8H2049.87V1156.88L2047.94 1159.34ZM2055.28 1158.74C2057.36 1158.74 2059.12 1160.02 2059.12 1162.48C2059.12 1164.94 2057.2 1166.22 2055.04 1166.22C2053.26 1166.22 2051.73 1165.47 2051.04 1163.82L2053.25 1162.54C2053.5 1163.28 2053.98 1163.73 2055.04 1163.73C2056.09 1163.73 2056.56 1163.17 2056.56 1162.48C2056.56 1161.79 2056.09 1161.23 2055.12 1161.23H2051.61L2052.08 1154.8H2058.56V1157.2H2054.48L2054.37 1158.74H2055.28ZM2064.48 1166.22C2061.58 1166.22 2059.92 1163.86 2059.92 1160.4C2059.92 1156.94 2061.58 1154.58 2064.48 1154.58C2067.37 1154.58 2069.04 1156.94 2069.04 1160.4C2069.04 1163.86 2067.37 1166.22 2064.48 1166.22ZM2064.48 1163.73C2065.82 1163.73 2066.48 1162.56 2066.48 1160.4C2066.48 1158.24 2065.82 1157.07 2064.48 1157.07C2063.13 1157.07 2062.48 1158.24 2062.48 1160.4C2062.48 1162.56 2063.13 1163.73 2064.48 1163.73ZM2069.36 1154.8H2076.72V1156.94L2073.08 1166H2070.36L2073.88 1157.26H2069.36V1154.8Z" fill="white"/>
<path d="M2292.94 1159.34C2294.31 1159.82 2295.32 1160.93 2295.32 1162.48C2295.32 1164.94 2293.4 1166.22 2291.24 1166.22C2289.54 1166.22 2288.01 1165.47 2287.32 1163.82L2289.53 1162.54C2289.78 1163.28 2290.26 1163.73 2291.24 1163.73C2292.3 1163.73 2292.76 1163.17 2292.76 1162.48C2292.76 1161.79 2292.3 1161.23 2291.24 1161.23H2290.71L2289.74 1159.78L2291.77 1157.2H2287.67V1154.8H2294.87V1156.88L2292.94 1159.34ZM2300.28 1158.74C2302.36 1158.74 2304.12 1160.02 2304.12 1162.48C2304.12 1164.94 2302.2 1166.22 2300.04 1166.22C2298.26 1166.22 2296.73 1165.47 2296.04 1163.82L2298.25 1162.54C2298.5 1163.28 2298.98 1163.73 2300.04 1163.73C2301.09 1163.73 2301.56 1163.17 2301.56 1162.48C2301.56 1161.79 2301.09 1161.23 2300.12 1161.23H2296.61L2297.08 1154.8H2303.56V1157.2H2299.48L2299.37 1158.74H2300.28ZM2309.48 1166.22C2306.58 1166.22 2304.92 1163.86 2304.92 1160.4C2304.92 1156.94 2306.58 1154.58 2309.48 1154.58C2312.37 1154.58 2314.04 1156.94 2314.04 1160.4C2314.04 1163.86 2312.37 1166.22 2309.48 1166.22ZM2309.48 1163.73C2310.82 1163.73 2311.48 1162.56 2311.48 1160.4C2311.48 1158.24 2310.82 1157.07 2309.48 1157.07C2308.13 1157.07 2307.48 1158.24 2307.48 1160.4C2307.48 1162.56 2308.13 1163.73 2309.48 1163.73ZM2319.43 1158.34C2321.65 1158.51 2323.16 1160.1 2323.16 1162.27C2323.16 1164.59 2321.46 1166.22 2319 1166.22C2316.52 1166.22 2314.84 1164.59 2314.84 1162.27C2314.84 1161.41 2315.08 1160.62 2315.49 1160L2318.92 1154.8H2321.86L2319.43 1158.34ZM2319 1163.82C2319.84 1163.82 2320.6 1163.25 2320.6 1162.27C2320.6 1161.3 2319.84 1160.72 2319 1160.72C2318.13 1160.72 2317.4 1161.28 2317.4 1162.27C2317.4 1163.26 2318.13 1163.82 2319 1163.82Z" fill="white"/>
<path d="M2376.94 1125.34C2378.31 1125.82 2379.32 1126.93 2379.32 1128.48C2379.32 1130.94 2377.4 1132.22 2375.24 1132.22C2373.54 1132.22 2372.01 1131.47 2371.32 1129.82L2373.53 1128.54C2373.78 1129.28 2374.26 1129.73 2375.24 1129.73C2376.3 1129.73 2376.76 1129.17 2376.76 1128.48C2376.76 1127.79 2376.3 1127.23 2375.24 1127.23H2374.71L2373.74 1125.78L2375.77 1123.2H2371.67V1120.8H2378.87V1122.88L2376.94 1125.34ZM2384.28 1124.74C2386.36 1124.74 2388.12 1126.02 2388.12 1128.48C2388.12 1130.94 2386.2 1132.22 2384.04 1132.22C2382.26 1132.22 2380.73 1131.47 2380.04 1129.82L2382.25 1128.54C2382.5 1129.28 2382.98 1129.73 2384.04 1129.73C2385.09 1129.73 2385.56 1129.17 2385.56 1128.48C2385.56 1127.79 2385.09 1127.23 2384.12 1127.23H2380.61L2381.08 1120.8H2387.56V1123.2H2383.48L2383.37 1124.74H2384.28ZM2393.48 1132.22C2390.58 1132.22 2388.92 1129.86 2388.92 1126.4C2388.92 1122.94 2390.58 1120.58 2393.48 1120.58C2396.37 1120.58 2398.04 1122.94 2398.04 1126.4C2398.04 1129.86 2396.37 1132.22 2393.48 1132.22ZM2393.48 1129.73C2394.82 1129.73 2395.48 1128.56 2395.48 1126.4C2395.48 1124.24 2394.82 1123.07 2393.48 1123.07C2392.13 1123.07 2391.48 1124.24 2391.48 1126.4C2391.48 1128.56 2392.13 1129.73 2393.48 1129.73ZM2402.92 1124.74C2405 1124.74 2406.76 1126.02 2406.76 1128.48C2406.76 1130.94 2404.84 1132.22 2402.68 1132.22C2400.9 1132.22 2399.37 1131.47 2398.68 1129.82L2400.89 1128.54C2401.14 1129.28 2401.62 1129.73 2402.68 1129.73C2403.74 1129.73 2404.2 1129.17 2404.2 1128.48C2404.2 1127.79 2403.74 1127.23 2402.76 1127.23H2399.26L2399.72 1120.8H2406.2V1123.2H2402.12L2402.01 1124.74H2402.92Z" fill="white"/>
<path d="M2376.94 758.344C2378.31 758.824 2379.32 759.928 2379.32 761.48C2379.32 763.944 2377.4 765.224 2375.24 765.224C2373.54 765.224 2372.01 764.472 2371.32 762.824L2373.53 761.544C2373.78 762.28 2374.26 762.728 2375.24 762.728C2376.3 762.728 2376.76 762.168 2376.76 761.48C2376.76 760.792 2376.3 760.232 2375.24 760.232H2374.71L2373.74 758.776L2375.77 756.2H2371.67V753.8H2378.87V755.88L2376.94 758.344ZM2384.28 757.736C2386.36 757.736 2388.12 759.016 2388.12 761.48C2388.12 763.944 2386.2 765.224 2384.04 765.224C2382.26 765.224 2380.73 764.472 2380.04 762.824L2382.25 761.544C2382.5 762.28 2382.98 762.728 2384.04 762.728C2385.09 762.728 2385.56 762.168 2385.56 761.48C2385.56 760.792 2385.09 760.232 2384.12 760.232H2380.61L2381.08 753.8H2387.56V756.2H2383.48L2383.37 757.736H2384.28ZM2393.48 765.224C2390.58 765.224 2388.92 762.856 2388.92 759.4C2388.92 755.944 2390.58 753.576 2393.48 753.576C2396.37 753.576 2398.04 755.944 2398.04 759.4C2398.04 762.856 2396.37 765.224 2393.48 765.224ZM2393.48 762.728C2394.82 762.728 2395.48 761.56 2395.48 759.4C2395.48 757.24 2394.82 756.072 2393.48 756.072C2392.13 756.072 2391.48 757.24 2391.48 759.4C2391.48 761.56 2392.13 762.728 2393.48 762.728ZM2398.56 765V763.144L2402.32 759.24C2402.97 758.568 2403.45 757.912 2403.45 757.256C2403.45 756.552 2403 756.072 2402.25 756.072C2401.47 756.072 2400.91 756.584 2400.6 757.288L2398.44 756.024C2399.16 754.36 2400.67 753.576 2402.22 753.576C2404.22 753.576 2406.01 754.888 2406.01 757.144C2406.01 758.488 2405.29 759.64 2404.27 760.664L2402.41 762.536H2406.17V765H2398.56Z" fill="white"/>
<path d="M2376.94 371.344C2378.31 371.824 2379.32 372.928 2379.32 374.48C2379.32 376.944 2377.4 378.224 2375.24 378.224C2373.54 378.224 2372.01 377.472 2371.32 375.824L2373.53 374.544C2373.78 375.28 2374.26 375.728 2375.24 375.728C2376.3 375.728 2376.76 375.168 2376.76 374.48C2376.76 373.792 2376.3 373.232 2375.24 373.232H2374.71L2373.74 371.776L2375.77 369.2H2371.67V366.8H2378.87V368.88L2376.94 371.344ZM2384.28 370.736C2386.36 370.736 2388.12 372.016 2388.12 374.48C2388.12 376.944 2386.2 378.224 2384.04 378.224C2382.26 378.224 2380.73 377.472 2380.04 375.824L2382.25 374.544C2382.5 375.28 2382.98 375.728 2384.04 375.728C2385.09 375.728 2385.56 375.168 2385.56 374.48C2385.56 373.792 2385.09 373.232 2384.12 373.232H2380.61L2381.08 366.8H2387.56V369.2H2383.48L2383.37 370.736H2384.28ZM2393.48 378.224C2390.58 378.224 2388.92 375.856 2388.92 372.4C2388.92 368.944 2390.58 366.576 2393.48 366.576C2396.37 366.576 2398.04 368.944 2398.04 372.4C2398.04 375.856 2396.37 378.224 2393.48 378.224ZM2393.48 375.728C2394.82 375.728 2395.48 374.56 2395.48 372.4C2395.48 370.24 2394.82 369.072 2393.48 369.072C2392.13 369.072 2391.48 370.24 2391.48 372.4C2391.48 374.56 2392.13 375.728 2393.48 375.728ZM2401.29 366.8H2403.53V378H2400.97V369.504L2398.99 370.048L2398.36 367.856L2401.29 366.8Z" fill="white"/>
</g>
<defs>
<clipPath id="clip0_13_150">
<rect width="2871" height="1588" fill="white"/>
</clipPath>
</defs>
</svg>
