<?xml version="1.0" standalone="no"?>
<!DOCTYPE svg PUBLIC "-//W3C//DTD SVG 1.0//EN" "http://www.w3.org/TR/2001/REC-SVG-20010904/DTD/svg10.dtd">
<svg xmlns="http://www.w3.org/2000/svg" xmlns:xlink="http://www.w3.org/1999/xlink" id="body_822377696_17970" width="3174.8049" height="4490.081">

<g transform="matrix(0.36691888 0 0 -0.36691888 221.23785 2357.5516)" >
    <g>
            <path d="M0.0098196458 -0.019795133L0.0098196458 -0.019795133" stroke="#BDBDBD" stroke-width="2.311425" stroke-linecap="round" stroke-linejoin="round" fill="none" />
            <g>
                <path d="M7217.7379 866.75276L7217.7379 661.79407L7303.9138 661.79407L7303.9138 866.75276L7217.7379 866.75276M7363.507 821.79407L7363.507 866.75276L7303.9138 866.75276L7303.9138 821.79407L7363.507 821.79407M7303.9138 821.79407L7303.9138 781.80314L7363.507 781.80314L7363.507 821.79407L7303.9138 821.79407M7303.9138 781.80314L7303.9138 741.79407L7363.507 741.79407L7363.507 781.80314L7303.9138 781.80314M7303.9138 741.79407L7303.9138 701.79407L7363.507 701.79407L7363.507 741.79407L7303.9138 741.79407M7303.9138 701.79407L7303.9138 661.79407L7363.507 661.79407L7363.507 701.79407L7303.9138 701.79407M7303.9138 661.79407L7303.9138 621.79407L7363.507 621.79407L7363.507 661.79407L7303.9138 661.79407M7303.9138 621.79407L7303.9138 661.79407L7217.7379 661.79407L7217.7379 621.79407L7303.9138 621.79407M7303.9138 581.79407L7303.9138 621.79407L7217.7379 621.79407L7217.7379 581.79407L7303.9138 581.79407M7363.507 581.79407L7363.507 621.79407L7303.9138 621.79407L7303.9138 581.79407L7363.507 581.79407M7363.507 541.79407L7363.507 581.79407L7303.9138 581.79407L7303.9138 541.79407L7363.507 541.79407M7217.7379 581.79407L7217.7379 498.9436L7303.9138 498.9436L7303.9138 581.79407L7217.7379 581.79407M7303.9138 541.79407L7303.9138 498.9436L7363.507 498.9436L7363.507 541.79407L7303.9138 541.79407M7518.14 498.9436L7518.14 866.75276L7382.5326 866.75276L7382.5326 498.9436L7518.14 498.9436" stroke="#5F6DEC" stroke-width="0" stroke-opacity="1" fill="#5F6DEC" fill-rule="evenodd" fill-opacity="1" />
            </g>
                <path d="M7217.7379 1012.2032L7217.7379 1077.5351L6890.5084 1077.5351L6890.5084 531.25468L7217.7379 531.25468L7217.7379 1012.2032" stroke="#3A3A3A" stroke-width="0" stroke-opacity="1" fill="#3A3A3A" fill-rule="evenodd" fill-opacity="1" />
                <path d="M7217.7379 1012.2032L7217.7379 344.06503L7518.14 344.06503L7518.14 1012.2032L7217.7379 1012.2032" stroke="#202125" stroke-width="0" stroke-opacity="1" fill="#202125" fill-rule="evenodd" fill-opacity="1" />
            <g>
                <path d="M7217.7379 866.75276L7217.7379 661.79407L7363.507 661.79407L7363.507 866.75276L7217.7379 866.75276M7363.507 866.75276L7363.507 498.9436L7518.14 498.9436L7518.14 866.75276L7363.507 866.75276M7217.7379 661.79407L7217.7379 621.79407L7363.507 621.79407L7363.507 661.79407L7217.7379 661.79407M7217.7379 621.79407L7217.7379 581.79407L7363.507 581.79407L7363.507 621.79407L7217.7379 621.79407M7217.7379 581.79407L7217.7379 498.9436L7363.507 498.9436L7363.507 581.79407L7217.7379 581.79407" stroke="#5F6DEC" stroke-width="0" stroke-opacity="1" fill="#5F6DEC" fill-rule="evenodd" fill-opacity="1" />
            </g>
                <path d="M-37.187332 1034.1542L962.89688 1034.1542L962.89688 1077.5351L7217.7379 1077.5351L7217.7379 1012.2032L7518.14 1012.2032L7518.14 344.06503L7217.821 344.06503L7518.14 344.06503" stroke="#BDBDBD" stroke-width="60" stroke-linecap="round" stroke-linejoin="round" fill="none" />
                <path d="M-37.187332 -49.61135L183.24288 -49.61135L183.24288 123.77416L214.94853 123.77416L214.94853 508.57363L-37.187332 508.57363L-37.187332 -49.61135" stroke="#3A3A3A" stroke-width="0" stroke-opacity="1" fill="#3A3A3A" fill-rule="evenodd" fill-opacity="1" />
                <path d="M411.44363 508.57363L411.44363 -49.61135L960.25315 -49.61135L960.25315 508.57363L411.44363 508.57363" stroke="#3A3A3A" stroke-width="0" stroke-opacity="1" fill="#3A3A3A" fill-rule="evenodd" fill-opacity="1" />
                <path d="M7217.7379 -49.61135L7217.7379 498.9436L7217.2255 498.9436L7217.2255 531.25468L6890.5084 531.25468L6890.5084 169.17638L2295.4403 169.17638L2295.4403 682.49376L962.89688 682.49376L962.89688 784.27977L647.75872 782.66216L647.77947 712.42197L647.77953 712.21961L495.78936 712.17471L495.78936 705.74785L125.69609 705.74785L125.69609 712.06537L-37.187332 712.01725L-37.187332 508.57363L960.25315 508.57363L960.25315 488.712L1682.5092 488.712L2110.122 488.712L2110.122 -49.61135L7217.7379 -49.61135" stroke="#202125" stroke-width="0" stroke-opacity="1" fill="#202125" fill-rule="evenodd" fill-opacity="1" />
                <path d="M-43.888641 508.57363L960.25315 508.57363" stroke="#BDBDBD" stroke-width="60" stroke-linecap="round" stroke-linejoin="round" fill="none" />
                <path d="M-25.567077 712.21961L647.77953 712.21961" stroke="#BDBDBD" stroke-width="60" stroke-linecap="round" stroke-linejoin="round" fill="none" />
                <path d="M962.89688 1031.2701L647.77953 1034.1542L654.18545 784.27977L962.89688 781.39566L962.89688 784.27977L962.89688 1031.2701" stroke="#3A3A3A" stroke-width="0" stroke-opacity="1" fill="#3A3A3A" fill-rule="evenodd" fill-opacity="1" />
                <path d="M1371.5181 682.49376L1371.5181 1077.5351L962.89688 1077.5351L962.89688 682.49376L1371.5181 682.49376" stroke="#3A3A3A" stroke-width="0" stroke-opacity="1" fill="#3A3A3A" fill-rule="evenodd" fill-opacity="1" />
                <path d="M2295.4403 1077.5351L1975.3807 1077.5351L1975.3807 682.49376L2295.4403 682.49376L2295.4403 1077.5351" stroke="#3A3A3A" stroke-width="0" stroke-opacity="1" fill="#3A3A3A" fill-rule="evenodd" fill-opacity="1" />
                <path d="M962.89688 784.27977L962.89688 682.49376L2295.4403 682.49376L2295.4403 1077.5351L962.89688 1077.5351L962.89688 682.49376" stroke="#BDBDBD" stroke-width="60" stroke-linecap="round" stroke-linejoin="round" fill="none" />
                <path d="M2110.122 488.712L1682.5092 488.712L1682.5092 -49.61135L2110.122 -49.61135L2110.122 488.712" stroke="#3A3A3A" stroke-width="0" stroke-opacity="1" fill="#3A3A3A" fill-rule="evenodd" fill-opacity="1" />
                <path d="M960.25315 488.712L2110.122 488.712L2110.122 -49.61135L-37.187332 -49.61135" stroke="#BDBDBD" stroke-width="60" stroke-linecap="round" stroke-linejoin="round" fill="none" />
                <path d="M411.44363 508.57363L214.94853 508.57363L214.94853 123.77416L183.24288 123.77416L183.24288 -49.61135L411.44363 -49.61135L411.44363 508.57363" stroke="#3A3A3A" stroke-width="0" stroke-opacity="1" fill="#3A3A3A" fill-rule="evenodd" fill-opacity="1" />
                <path d="M214.94853 508.57363L214.94853 123.77416L183.24288 123.77416L183.24288 -49.61135" stroke="#BDBDBD" stroke-width="60" stroke-linecap="round" stroke-linejoin="round" fill="none" />
                <path d="M214.94853 508.57363L411.44363 508.57363L411.44363 -49.61135L183.24288 -49.61135" stroke="#BDBDBD" stroke-width="60" stroke-linecap="round" stroke-linejoin="round" fill="none" />
                <path d="M1682.5092 488.712L960.25315 488.712L960.25315 -49.61135L1682.5092 -49.61135L1682.5092 488.712" stroke="#3A3A3A" stroke-width="0" stroke-opacity="1" fill="#3A3A3A" fill-rule="evenodd" fill-opacity="1" />
                <path d="M960.25315 488.712L960.25315 -49.61135L1682.5092 -49.61135L1682.5092 488.712L960.25315 488.712" stroke="#BDBDBD" stroke-width="60" stroke-linecap="round" stroke-linejoin="round" fill="none" />
                <path d="M1371.5181 682.49376L1673.4494 682.49376L1673.4494 1077.5351L1371.5181 1077.5351L1371.5181 682.49376" stroke="#202125" stroke-width="0" stroke-opacity="1" fill="#202125" fill-rule="evenodd" fill-opacity="1" />
                <path d="M1673.4494 1077.5351L1371.5181 1077.5351L1371.5181 682.49376L1673.4494 682.49376L1673.4494 1077.5351" stroke="#3A3A3A" stroke-width="0" stroke-opacity="1" fill="#3A3A3A" fill-rule="evenodd" fill-opacity="1" />
                <path d="M962.89688 1077.5351L1371.5181 1077.5351L1371.5181 682.49376L1975.3807 682.49376L1975.3807 1077.5351L1371.5181 1077.5351" stroke="#BDBDBD" stroke-width="60" stroke-linecap="round" stroke-linejoin="round" fill="none" />
                <path d="M1673.4494 682.49376L1975.3807 682.49376L1975.3807 1077.5351L1673.4494 1077.5351L1673.4494 682.49376" stroke="#3A3A3A" stroke-width="0" stroke-opacity="1" fill="#3A3A3A" fill-rule="evenodd" fill-opacity="1" />
                <path d="M1673.4494 1077.5351L1673.4494 682.49376L1975.3807 682.49376L1975.3807 1077.5351L1673.4494 1077.5351" stroke="#BDBDBD" stroke-width="60" stroke-linecap="round" stroke-linejoin="round" fill="none" />
                <path d="M2295.4403 1077.5351L2295.4403 682.49376L2295.4403 169.17638L4128.8743 169.17638L4128.8743 1077.5351L2295.4403 1077.5351" stroke="#3A3A3A" stroke-width="0" stroke-opacity="1" fill="#3A3A3A" fill-rule="evenodd" fill-opacity="1" />
                <path d="M6890.5084 169.17638L6890.5084 1077.5351L5354.1334 1077.5351L5354.1334 169.17638L6890.5084 169.17638" stroke="#3A3A3A" stroke-width="0" stroke-opacity="1" fill="#3A3A3A" fill-rule="evenodd" fill-opacity="1" />
                <path d="M2295.4403 682.49376L2295.4403 169.17638L6890.5084 169.17638L6890.5084 1077.5351L2295.4403 1077.5351L2295.4403 682.49376" stroke="#BDBDBD" stroke-width="60" stroke-linecap="round" stroke-linejoin="round" fill="none" />
                <path d="M5354.1334 169.17638L5354.1334 1077.5351L4128.8743 1077.5351L4128.8743 169.17638L5354.1334 169.17638" stroke="#3A3A3A" stroke-width="0" stroke-opacity="1" fill="#3A3A3A" fill-rule="evenodd" fill-opacity="1" />
                <path d="M4128.8743 169.17638L4128.8743 1077.5351L5354.1334 1077.5351L5354.1334 169.17638L4128.8743 169.17638" stroke="#BDBDBD" stroke-width="60" stroke-linecap="round" stroke-linejoin="round" fill="none" />
                <path d="M6890.5084 531.25468L7218.2679 531.25468" stroke="#BDBDBD" stroke-width="60" stroke-linecap="round" stroke-linejoin="round" fill="none" />
                <path d="M7217.7379 1012.2032L7217.7379 -49.61135" stroke="#BDBDBD" stroke-width="60" stroke-linecap="round" stroke-linejoin="round" fill="none" />
            <g>
                <path d="M-37.187332 712.21961L647.77947 712.42197L647.68442 1034.1542L495.78936 1034.1542L495.78936 885.61949L125.69609 885.61949L125.69609 1034.1542L-37.187332 1034.1542L-37.187332 712.21961M170.61194 860.14398L170.61194 729.11134L170.62637 728.03705L170.62637 859.0697L170.61194 860.14398L170.61194 860.14398M170.61194 887.76149L170.62637 886.6872L170.62637 1017.7198L170.61194 1018.7941L170.61194 887.76149M495.78936 885.61949L495.78936 1034.1542L125.69609 1034.1542L125.69609 885.61949L495.78936 885.61949L495.78936 885.61949" stroke="#202125" stroke-width="0" stroke-opacity="1" fill="#202125" fill-rule="evenodd" fill-opacity="1" />
            </g>
                <path d="M7217.7379 1012.2032L7217.7379 -49.61135L-37.187332 -49.61135L-37.187332 1034.1542L647.77953 1034.1542" stroke="#BDBDBD" stroke-width="60" stroke-linecap="round" stroke-linejoin="round" fill="none" />
            <g>
                <path d="M125.69609 712.26773L495.78936 712.37707L495.78936 854.2826L125.69609 854.2826L125.69609 712.26773M125.69609 885.61949L495.78936 885.61949L495.78936 1034.1542L125.69609 1034.1542L125.69609 885.61949M170.61194 887.76149L170.62637 886.6872L170.62637 1017.7198L170.61194 1018.7941L170.61194 887.76149L170.61194 887.76149" stroke="#5F6DEC" stroke-width="0" stroke-opacity="1" fill="#5F6DEC" fill-rule="evenodd" fill-opacity="1" />
            </g>
                <path d="M125.69609 1034.1542L125.69609 885.61949L495.78936 885.61949L495.78936 1034.1542L125.69609 1034.1542L125.69609 885.61949" stroke="#BDBDBD" stroke-width="20" stroke-linecap="round" stroke-linejoin="round" fill="none" />
                <path d="M125.69609 854.2826L125.69609 705.74785L495.78936 705.74785L495.78936 854.2826L125.69609 854.2826L125.69609 705.74785" stroke="#BDBDBD" stroke-width="20" stroke-linecap="round" stroke-linejoin="round" fill="none" />
                <path d="M7217.2255 866.75276L7363.507 866.75276L7363.507 498.9436L7207.3572 498.9436" stroke="#BDBDBD" stroke-width="20" stroke-linecap="round" stroke-linejoin="round" fill="none" />
                <path d="M7528.8141 498.9436L7382.5326 498.9436L7382.5326 866.75276L7538.6824 866.75276" stroke="#BDBDBD" stroke-width="20" stroke-linecap="round" stroke-linejoin="round" fill="none" />
                <path d="M-37.187332 1024.0227L-37.187332 712.01725L647.77953 712.21961L647.68442 1034.1542" stroke="#BDBDBD" stroke-width="60" stroke-linecap="round" stroke-linejoin="round" fill="none" />
                <path d="M170.61194 887.76149L170.61194 1018.7941" stroke="#BDBDBD" stroke-width="10" stroke-linecap="round" stroke-linejoin="round" fill="none" />
                <path d="M170.62637 886.6872L170.62637 1017.7198" stroke="#BDBDBD" stroke-width="10" stroke-linecap="round" stroke-linejoin="round" fill="none" />
                <path d="M210.61729 887.89204L210.61729 1018.9246" stroke="#BDBDBD" stroke-width="10" stroke-linecap="round" stroke-linejoin="round" fill="none" />
                <path d="M250.62637 886.6872L250.62637 1017.7198" stroke="#BDBDBD" stroke-width="10" stroke-linecap="round" stroke-linejoin="round" fill="none" />
                <path d="M290.62637 886.6872L290.62637 1017.7198" stroke="#BDBDBD" stroke-width="10" stroke-linecap="round" stroke-linejoin="round" fill="none" />
                <path d="M330.62637 886.6872L330.62637 1017.7198" stroke="#BDBDBD" stroke-width="10" stroke-linecap="round" stroke-linejoin="round" fill="none" />
                <path d="M370.62637 886.6872L370.62637 1017.7198" stroke="#BDBDBD" stroke-width="10" stroke-linecap="round" stroke-linejoin="round" fill="none" />
                <path d="M410.62637 886.6872L410.62637 1017.7198" stroke="#BDBDBD" stroke-width="10" stroke-linecap="round" stroke-linejoin="round" fill="none" />
                <path d="M450.62637 886.6872L450.62637 1017.7198" stroke="#BDBDBD" stroke-width="10" stroke-linecap="round" stroke-linejoin="round" fill="none" />
                <path d="M170.61194 729.11134L170.61194 860.14398" stroke="#BDBDBD" stroke-width="10" stroke-linecap="round" stroke-linejoin="round" fill="none" />
                <path d="M170.62637 728.03705L170.62637 859.0697" stroke="#BDBDBD" stroke-width="10" stroke-linecap="round" stroke-linejoin="round" fill="none" />
                <path d="M210.61729 729.24189L210.61729 860.27454" stroke="#BDBDBD" stroke-width="10" stroke-linecap="round" stroke-linejoin="round" fill="none" />
                <path d="M250.62637 728.03705L250.62637 859.0697" stroke="#BDBDBD" stroke-width="10" stroke-linecap="round" stroke-linejoin="round" fill="none" />
                <path d="M290.62637 728.03705L290.62637 859.0697" stroke="#BDBDBD" stroke-width="10" stroke-linecap="round" stroke-linejoin="round" fill="none" />
                <path d="M330.62637 728.03705L330.62637 859.0697" stroke="#BDBDBD" stroke-width="10" stroke-linecap="round" stroke-linejoin="round" fill="none" />
                <path d="M370.62637 728.03705L370.62637 859.0697" stroke="#BDBDBD" stroke-width="10" stroke-linecap="round" stroke-linejoin="round" fill="none" />
                <path d="M410.62637 728.03705L410.62637 859.0697" stroke="#BDBDBD" stroke-width="10" stroke-linecap="round" stroke-linejoin="round" fill="none" />
                <path d="M450.62637 728.03705L450.62637 859.0697" stroke="#BDBDBD" stroke-width="10" stroke-linecap="round" stroke-linejoin="round" fill="none" />
                <path d="M7372.9801 821.8085L7504.0127 821.8085" stroke="#BDBDBD" stroke-width="10" stroke-linecap="round" stroke-linejoin="round" fill="none" />
                <path d="M7223.3595 821.79407L7502.9385 821.79407" stroke="#BDBDBD" stroke-width="10" stroke-linecap="round" stroke-linejoin="round" fill="none" />
                <path d="M7233.5404 781.80314L7504.1433 781.80314" stroke="#BDBDBD" stroke-width="10" stroke-linecap="round" stroke-linejoin="round" fill="none" />
                <path d="M7220.261 741.79407L7502.9385 741.79407" stroke="#BDBDBD" stroke-width="10" stroke-linecap="round" stroke-linejoin="round" fill="none" />
                <path d="M7223.9177 701.79407L7502.9385 701.79407" stroke="#BDBDBD" stroke-width="10" stroke-linecap="round" stroke-linejoin="round" fill="none" />
                <path d="M7212.8369 661.79407L7502.9385 661.79407" stroke="#BDBDBD" stroke-width="10" stroke-linecap="round" stroke-linejoin="round" fill="none" />
                <path d="M7217.7124 621.79407L7502.9385 621.79407" stroke="#BDBDBD" stroke-width="10" stroke-linecap="round" stroke-linejoin="round" fill="none" />
                <path d="M7217.2692 581.79407L7502.9385 581.79407" stroke="#BDBDBD" stroke-width="10" stroke-linecap="round" stroke-linejoin="round" fill="none" />
                <path d="M7220.8151 541.79407L7502.9385 541.79407" stroke="#BDBDBD" stroke-width="10" stroke-linecap="round" stroke-linejoin="round" fill="none" />
                <path d="M-37.187332 1024.0227L-37.187332 712.21961L647.77947 712.42197L647.68442 1034.1542L-37.187332 1034.1542" stroke="#BDBDBD" stroke-width="60" stroke-linecap="round" stroke-linejoin="round" fill="none" />
                <path d="M647.77953 1034.1542L962.89688 1034.1542L962.89688 784.27977L647.75872 782.66216L647.68442 1034.1542" stroke="#BDBDBD" stroke-width="60" stroke-linecap="round" stroke-linejoin="round" fill="none" />
                <path d="M125.69609 854.2826L495.78936 854.2826L495.78936 705.74785L125.69609 705.74785L125.69609 854.2826" stroke="#BDBDBD" stroke-width="1.6152607" stroke-linecap="round" stroke-linejoin="round" fill="none" />
                <path d="M411.44363 508.57363L411.44363 -49.61135L960.25315 -49.61135L960.25315 508.57363L411.44363 508.57363" stroke="#BDBDBD" stroke-width="1.6152607" stroke-linecap="round" stroke-linejoin="round" fill="none" />
                <path d="M7217.2255 866.75276L7217.2255 498.9436L7528.8141 498.9436L7528.8141 866.75276L7217.2255 866.75276" stroke="#BDBDBD" stroke-width="1.6152607" stroke-linecap="round" stroke-linejoin="round" fill="none" />
    </g>
</g>
</svg>