<svg width="2871" height="1588" viewBox="0 0 2871 1588" fill="none" xmlns="http://www.w3.org/2000/svg">
<path d="M246.5 860V730.5L2394 732.5V1152.5L2333.5 1202H2252.5V860H898.5V1183.5H803L766 1132V860H246.5Z" fill="#202125" stroke="black"/>
<path d="M484 451.5H607V732.5H484V451.5Z" fill="#3A3A3A"/>
<path d="M455 452.5L399 384H702.5L755.5 452.5V733.5H607V452.5H455Z" fill="#3A3A3A"/>
<path d="M752.5 734.5H936H1019.5V453.5L982 414H785.5L752.5 453.5V734.5Z" fill="#3A3A3A"/>
<path d="M1021.5 735V451.5L1084.5 390.5H1233L1297 451.5L1330.5 421H1539L1572.5 451.5L1635.5 390.5H1781.5L1841.5 451.5V735H1021.5Z" fill="#3A3A3A"/>
<path d="M1841.5 738H1976.5V415H1873.5L1841.5 453.5V738Z" fill="#3A3A3A"/>
<path d="M2075.5 414H1978.5L1979 739.5H2114V456L2075.5 414Z" fill="#3A3A3A"/>
<path d="M2249 456.5H2114V738.5H2249V456.5Z" fill="#3A3A3A"/>
<path d="M2107.5 455.5H2245.5V738H2389V451L2331 389.5H2181L2107.5 455.5Z" fill="#3A3A3A"/>
<path d="M2675 452H2387.5L2389.5 1151.5H2675V452Z" fill="#3A3A3A"/>
<path d="M1842.5 860.5H2254V1203H2182.5L2122 1147.5L2087 1184.5H1883L1842.5 1142V860.5Z" fill="#3A3A3A"/>
<path d="M1840.5 1145V861.5L1033.5 857L1034.5 1134.5L1091 1203.5H1235.5L1297 1134.5L1329 1181.5H1539.5L1571.5 1145L1632 1202.5L1782 1203.5L1840.5 1145Z" fill="#3A3A3A"/>
<path d="M1031.5 1138V857H893.5V1182.5H996.5L1031.5 1138Z" fill="#3A3A3A"/>
<path d="M766 858H483V1136.5H453L401.5 1204.5H703L766 1136.5V858Z" fill="#3A3A3A"/>
<path d="M481 1046.5V858.5L245.5 858V864.5H198C260.5 1009.5 397.5 1074 481 1046.5Z" fill="#3A3A3A"/>
<path d="M483 544.5V732.5H246.5V719H196.5C234.5 603.8 378.5 522.5 483 544.5Z" fill="#3A3A3A"/>
<path d="M703.5 384L753.5 451.5L785 412.5H982.5L1020.5 451.5L1085.5 388H1232L1296.5 451.5L1328.5 420H1538L1570 451.5L1633.5 388H1781L1843 451.5L1873.5 412.5H2076L2109 451.5L2180 388H2332L2389.5 451.5H2676.5V1152H2389.5L2332 1203.5H2180L2121 1144.5L2086 1182.5H1881L1843 1144.5L1781 1203.5H1633.5L1570 1144.5L1538 1182.5H1328.5L1294.5 1134L1232 1203.5H1085.5L1032.5 1134L997 1182.5H801L767.5 1134L703.5 1203.5H397.5L451.5 1134H484.5V1048C322.5 1073.2 224.667 935.833 196 864H246V850V736V719H196C269.6 551.4 419 532.5 484.5 544V451.5H451.5L397.5 384H703.5Z" stroke="#BDBDBD" stroke-width="6"/>
<path d="M484.5 547L483.5 734.5H351.5" stroke="#BDBDBD" stroke-width="6"/>
<path d="M304 735H247" stroke="#BDBDBD" stroke-width="6"/>
<path d="M486.5 451.5H607.5V480" stroke="#BDBDBD" stroke-width="6"/>
<path d="M607.5 506V569" stroke="#BDBDBD" stroke-width="6"/>
<path d="M606 619.5V670" stroke="#BDBDBD" stroke-width="6"/>
<path d="M608.5 712.5V735H483.5" stroke="#BDBDBD" stroke-width="6"/>
<path d="M753.5 454V734.5H720" stroke="#BDBDBD" stroke-width="6"/>
<path d="M610 735H648.5" stroke="#BDBDBD" stroke-width="6"/>
<path d="M1020.5 453V736H978" stroke="#BDBDBD" stroke-width="6"/>
<path d="M938 735H754.5" stroke="#BDBDBD" stroke-width="6"/>
<path d="M1022 736H1325.5" stroke="#BDBDBD" stroke-width="6"/>
<path d="M1373 737H1768.5" stroke="#BDBDBD" stroke-width="6"/>
<path d="M1813.5 738.5H1875.5" stroke="#BDBDBD" stroke-width="6"/>
<path d="M1918 738.5H1976.5" stroke="#BDBDBD" stroke-width="6"/>
<path d="M2025.5 739.5H2112H2276" stroke="#BDBDBD" stroke-width="6"/>
<path d="M2345.5 739.5H2389.5" stroke="#BDBDBD" stroke-width="6"/>
<path d="M1842 453V737" stroke="#BDBDBD" stroke-width="6"/>
<path d="M1977 411.5L1977.03 741.5" stroke="#BDBDBD" stroke-width="6"/>
<path d="M2112 454V739.5" stroke="#BDBDBD" stroke-width="6"/>
<path d="M2111.5 455.5H2245V485" stroke="#BDBDBD" stroke-width="6"/>
<path d="M2244.5 529V578" stroke="#BDBDBD" stroke-width="6"/>
<path d="M2244.5 618V668.5" stroke="#BDBDBD" stroke-width="6"/>
<path d="M2244.5 716.5V741" stroke="#BDBDBD" stroke-width="6"/>
<path d="M2391 451.5V507" stroke="#BDBDBD" stroke-width="6"/>
<path d="M2388.5 548.5L2389.5 765.5" stroke="#BDBDBD" stroke-width="6"/>
<path d="M2390 834.5V1152" stroke="#BDBDBD" stroke-width="6"/>
<path d="M2389.5 858.5H2356" stroke="#BDBDBD" stroke-width="6"/>
<path d="M2283.5 859H2207.5" stroke="#BDBDBD" stroke-width="6"/>
<path d="M2153.5 858.5H1642" stroke="#BDBDBD" stroke-width="6"/>
<path d="M1583.5 858.5H1116" stroke="#BDBDBD" stroke-width="6"/>
<path d="M1071 859H987" stroke="#BDBDBD" stroke-width="6"/>
<path d="M935.005 858.5H750.994" stroke="#BDBDBD" stroke-width="6"/>
<path d="M712 857H350.5" stroke="#BDBDBD" stroke-width="6"/>
<path d="M300.5 856.5H249" stroke="#BDBDBD" stroke-width="6"/>
<path d="M483.5 857.5V1048.5" stroke="#BDBDBD" stroke-width="6"/>
<path d="M766 857.5V1137.5" stroke="#BDBDBD" stroke-width="6"/>
<path d="M1031.5 858.5V1136" stroke="#BDBDBD" stroke-width="6"/>
<path d="M1842 859.5V1146.5" stroke="#BDBDBD" stroke-width="6"/>
<path d="M2252.5 861.5V1203.5" stroke="#BDBDBD" stroke-width="6"/>
<path d="M893 858.5V1181.5" stroke="#BDBDBD" stroke-width="6"/>
<path d="M890 1061.5H833V932.5H890V1061.5Z" fill="#5F6DEC"/>
<rect x="823.394" y="1062" width="53.3937" height="129.498" transform="rotate(-180 823.394 1062)" fill="#5F6DEC"/>
<path d="M833.785 1062.5H828.363H822.942M833.785 1062.5H860.892M833.785 1062.5V1049.55M822.942 1062.5H796.738M822.942 1062.5V1049.55M822.942 933.002H833.785M822.942 933.002H796.738M822.942 933.002V944.956M833.785 933.002H860.892M833.785 933.002V944.956M860.892 1062.5H889.5V1049.55M860.892 1062.5V1010.7M860.892 933.002H889.5V944.956M860.892 933.002V984.207M796.738 933.002H769.534V944.956M796.738 933.002V1062.5M796.738 1062.5H769.534V1049.55M822.942 997.751H769.534M822.942 997.751V984.207M822.942 997.751V1010.7M769.534 997.751V984.207M769.534 997.751V1010.7M769.534 984.207V970.855M769.534 984.207H796.738H822.942M822.942 984.207V970.855M822.942 970.855V957.882M822.942 970.855H796.738H769.534M769.534 970.855V957.882M769.534 957.882V944.956M769.534 957.882H796.738H822.942M822.942 957.882V944.956M822.942 944.956H769.534M822.942 1010.7H769.534M822.942 1010.7V1023.72M769.534 1010.7V1023.72M769.534 1023.72V1036.6M769.534 1023.72H796.738H822.942M822.942 1023.72V1036.6M822.942 1036.6H769.534M822.942 1036.6V1049.55M769.534 1036.6V1049.55M769.534 1049.55H822.942M833.785 944.956H889.5M833.785 944.956V957.882M889.5 944.956V957.882M889.5 957.882H833.785M889.5 957.882V970.855M833.785 957.882V970.855M833.785 970.855H889.5M833.785 970.855V984.207M889.5 970.855V984.207M889.5 984.207H860.892M889.5 984.207V997.751M860.892 984.207H833.785M860.892 984.207V997.751M833.785 984.207V997.751M860.892 997.751H833.785M860.892 997.751H889.5M860.892 997.751V1010.7M833.785 997.751V1010.7M889.5 997.751V1010.7M889.5 1010.7H860.892M889.5 1010.7V1023.72M860.892 1010.7H833.785M833.785 1010.7V1023.72M833.785 1023.72H889.5M833.785 1023.72V1036.6M889.5 1023.72V1036.6M889.5 1036.6H833.785M889.5 1036.6V1049.55M833.785 1036.6V1049.55M833.785 1049.55H889.5" stroke="#9C9C9F" stroke-width="2"/>
<path d="M2389 1072.4H2326.07V930.5H2389V1072.4Z" fill="#5F6DEC"/>
<rect x="2315.46" y="1072.95" width="58.949" height="142.448" transform="rotate(-180 2315.46 1072.95)" fill="#5F6DEC"/>
<path d="M2326.94 1073.5H2320.95H2314.97M2326.94 1073.5H2356.86M2326.94 1073.5V1059.26M2314.97 1073.5H2286.03M2314.97 1073.5V1059.26M2314.97 931.052H2326.94M2314.97 931.052H2286.03M2314.97 931.052V944.201M2326.94 931.052H2356.86M2326.94 931.052V944.201M2356.86 1073.5H2388.45V1059.26M2356.86 1073.5V1016.52M2356.86 931.052H2388.45V944.201M2356.86 931.052V987.378M2286.03 931.052H2256V944.201M2286.03 931.052V1073.5M2286.03 1073.5H2256V1059.26M2314.97 1002.28H2256M2314.97 1002.28V987.378M2314.97 1002.28V1016.52M2256 1002.28V987.378M2256 1002.28V1016.52M2256 987.378V972.691M2256 987.378H2286.03H2314.97M2314.97 987.378V972.691M2314.97 972.691V958.42M2314.97 972.691H2286.03H2256M2256 972.691V958.42M2256 958.42V944.201M2256 958.42H2286.03H2314.97M2314.97 958.42V944.201M2314.97 944.201H2256M2314.97 1016.52H2256M2314.97 1016.52V1030.84M2256 1016.52V1030.84M2256 1030.84V1045.01M2256 1030.84H2286.03H2314.97M2314.97 1030.84V1045.01M2314.97 1045.01H2256M2314.97 1045.01V1059.26M2256 1045.01V1059.26M2256 1059.26H2314.97M2326.94 944.201H2388.45M2326.94 944.201V958.42M2388.45 944.201V958.42M2388.45 958.42H2326.94M2388.45 958.42V972.691M2326.94 958.42V972.691M2326.94 972.691H2388.45M2326.94 972.691V987.378M2388.45 972.691V987.378M2388.45 987.378H2356.86M2388.45 987.378V1002.28M2356.86 987.378H2326.94M2356.86 987.378V1002.28M2326.94 987.378V1002.28M2356.86 1002.28H2326.94M2356.86 1002.28H2388.45M2356.86 1002.28V1016.52M2326.94 1002.28V1016.52M2388.45 1002.28V1016.52M2388.45 1016.52H2356.86M2388.45 1016.52V1030.84M2356.86 1016.52H2326.94M2326.94 1016.52V1030.84M2326.94 1030.84H2388.45M2326.94 1030.84V1045.01M2388.45 1030.84V1045.01M2388.45 1045.01H2326.94M2388.45 1045.01V1059.26M2326.94 1045.01V1059.26M2326.94 1059.26H2388.45" stroke="#9C9C9F" stroke-width="2"/>
</svg>
