<?xml version="1.0" standalone="no"?>
<!DOCTYPE svg PUBLIC "-//W3C//DTD SVG 1.0//EN" "http://www.w3.org/TR/2001/REC-SVG-20010904/DTD/svg10.dtd">
<svg xmlns="http://www.w3.org/2000/svg" xmlns:xlink="http://www.w3.org/1999/xlink" id="body_357743802_37956" width="3174.8049" height="4490.081">

<g transform="matrix(0.52588322 0 0 -0.52588322 1329.274 3054.6024)" >
    <g>
                <path d="M3016.3858 118.79155L3016.3858 494.66117L2317.8901 494.66117L2317.8901 118.79155L3016.3858 118.79155" stroke="#3A3A3A" stroke-width="0" stroke-opacity="1" fill="#3A3A3A" fill-rule="evenodd" fill-opacity="1" />
                <path d="M302.68045 1294.0266L-25.98001 1294.0266L-25.98001 926.68383L302.68045 926.68383L302.68045 1294.0266" stroke="#3A3A3A" stroke-width="0" stroke-opacity="1" fill="#3A3A3A" fill-rule="evenodd" fill-opacity="1" />
                <path d="M-574.08266 743.97396L-415.80336 743.97396L-415.80336 1154.525L-574.08266 1154.525L-574.08266 743.97396" stroke="#3A3A3A" stroke-width="0" stroke-opacity="1" fill="#3A3A3A" fill-rule="evenodd" fill-opacity="1" />
                <path d="M1260.7699 743.97396L1506.7117 743.97396L1506.7117 1158.334L1260.7699 1158.334L1260.7699 743.97396" stroke="#3A3A3A" stroke-width="0" stroke-opacity="1" fill="#3A3A3A" fill-rule="evenodd" fill-opacity="1" />
                <path d="M1761.932 2187.6988L1761.932 1158.334L2063.8256 1158.334L2317.8901 1158.334L2317.8901 2187.6988L1761.932 2187.6988" stroke="#202125" stroke-width="0" stroke-opacity="1" fill="#202125" fill-rule="evenodd" fill-opacity="1" />
                <path d="M-2086.7748 2299.9183L-770.64632 2299.9183L-770.64632 1997.0479L-839.5708 1997.0479L-839.5708 1154.525L-260.1425 1154.525L-260.1425 1294.0266L302.0574 1294.0266L302.0574 1367.4493L610.40859 1367.4493L610.40859 1294.8092L1162.1369 1294.8092L1162.1369 1158.334L1761.932 1158.334L1761.932 2187.6988L1689.6063 2187.6988L1689.6063 2493.1713L3016.3858 2493.1713L3016.3858 118.79155L2317.8901 118.79155L2317.8901 35.149491L-1387.465 35.149491L-1387.465 118.82826L-1387.465 2299.9183" stroke="#BDBDBD" stroke-width="60" stroke-linecap="round" stroke-linejoin="round" fill="none" />
                <path d="M-1387.465 2299.9183L-2086.7748 2299.9183L-2086.7748 1124.2274L-1387.465 1124.2274L-1387.465 1154.525L-1387.465 2299.9183" stroke="#3A3A3A" stroke-width="0" stroke-opacity="1" fill="#3A3A3A" fill-rule="evenodd" fill-opacity="1" />
                <path d="M-1387.465 743.97396L-1387.465 765.73598L-2086.7748 765.73598L-2086.7748 509.27456L-1387.465 509.27456L-1387.465 743.97396" stroke="#3A3A3A" stroke-width="0" stroke-opacity="1" fill="#3A3A3A" fill-rule="evenodd" fill-opacity="1" />
                <path d="M-1387.465 509.27456L-2086.7748 509.27456L-2086.7748 120.67838L-1387.465 120.67838L-1387.465 509.27456" stroke="#3A3A3A" stroke-width="0" stroke-opacity="1" fill="#3A3A3A" fill-rule="evenodd" fill-opacity="1" />
                <path d="M-1135.4084 1464.773L-1135.4084 1709.6583L-1135.4084 1997.0479L-1196.8098 1997.0479L-1387.465 1997.0479L-1387.465 1154.525L-1162.7724 1154.525L-1162.7724 1156.4295L-1135.4084 1156.4295L-1135.4084 1464.773" stroke="#202125" stroke-width="0" stroke-opacity="1" fill="#202125" fill-rule="evenodd" fill-opacity="1" />
                <path d="M-1387.465 2299.9183L-2086.7748 2299.9183L-2086.7748 120.67838L-1387.465 120.67838L-1387.465 2299.9183L-2086.7748 2299.9183" stroke="#BDBDBD" stroke-width="60" stroke-linecap="round" stroke-linejoin="round" fill="none" />
                <path d="M-1387.465 1124.2274L-2086.7748 1124.2274L-2086.7748 765.73598L-1387.465 765.73598L-1387.465 1124.2274" stroke="#3A3A3A" stroke-width="0" stroke-opacity="1" fill="#3A3A3A" fill-rule="evenodd" fill-opacity="1" />
                <path d="M-2086.7748 1124.2274L-1387.465 1124.2274L-1387.465 765.73598L-2086.7748 765.73598L-2086.7748 1124.2274" stroke="#BDBDBD" stroke-width="60" stroke-linecap="round" stroke-linejoin="round" fill="none" />
                <path d="M-2086.7748 509.27456L-1387.465 509.27456L-1387.465 118.82826L-2086.7748 118.82826L-2086.7748 509.27456" stroke="#BDBDBD" stroke-width="60" stroke-linecap="round" stroke-linejoin="round" fill="none" />
                <path d="M-267.86908 35.149491L-267.86908 492.96221L-181.1969 492.96221L-181.1969 743.97396L-415.80336 743.97396L-798.77533 743.97396L-798.77533 742.06941L-1122.7724 742.06941L-1122.7724 737.71039L-1123.8398 564.8562L-1387.465 564.8562L-1387.465 35.149491L-267.86908 35.149491" stroke="#3A3A3A" stroke-width="0" stroke-opacity="1" fill="#3A3A3A" fill-rule="evenodd" fill-opacity="1" />
                <path d="M1967.0549 35.149491L1967.0549 564.22963L2028.3131 564.22963L2028.3131 743.97396L1699.8285 743.97396L1506.7117 743.97396L1111.0771 743.97396L1111.0771 35.149491L1967.0549 35.149491" stroke="#3A3A3A" stroke-width="0" stroke-opacity="1" fill="#3A3A3A" fill-rule="evenodd" fill-opacity="1" />
                <path d="M2317.8901 118.79155L2317.8901 743.97396L-1387.465 743.97396L-1387.465 35.149491L2317.8901 35.149491" stroke="#BDBDBD" stroke-width="60" stroke-linecap="round" stroke-linejoin="round" fill="none" />
                <path d="M3016.3858 987.08831L2317.8901 987.08831L2317.8901 743.97396L2317.8901 564.22963L2317.8901 494.66117L3016.3858 494.66117L3016.3858 987.08831" stroke="#3A3A3A" stroke-width="0" stroke-opacity="1" fill="#3A3A3A" fill-rule="evenodd" fill-opacity="1" />
                <path d="M3016.3858 2493.1713L2317.8901 2493.1713L2317.8901 2187.6988L2317.8901 1158.334L2317.8901 987.08831L3016.3858 987.08831L3016.3858 2493.1713" stroke="#3A3A3A" stroke-width="0" stroke-opacity="1" fill="#3A3A3A" fill-rule="evenodd" fill-opacity="1" />
                <path d="M2317.8901 743.97396L2317.8901 2493.1713L3016.3858 2493.1713L3016.3858 494.66117L2317.8901 494.66117L2317.8901 743.97396" stroke="#BDBDBD" stroke-width="60" stroke-linecap="round" stroke-linejoin="round" fill="none" />
                <path d="M3019.1242 987.08831L2317.8901 987.08831L2317.8901 494.66117L3016.3858 494.66117L3019.1242 987.08831" stroke="#BDBDBD" stroke-width="60" stroke-linecap="round" stroke-linejoin="round" fill="none" />
                <path d="M1689.6063 2187.6988L1689.6063 2493.1713L2317.8901 2493.1713" stroke="#BDBDBD" stroke-width="1.6127258" stroke-linecap="round" stroke-linejoin="round" fill="none" />
            <g>
                <path d="M1869.0842 2340.435L1869.0842 2493.1713L1689.6063 2493.1713L1689.6063 2187.6988L1761.932 2187.6988L1869.0842 2187.6988L1869.0842 2340.435M2317.8901 2493.1713L2138.4122 2493.1713L2138.4122 2187.6988L2317.8901 2187.6988L2317.8901 2493.1713M2138.4122 2491.8703L1869.0842 2491.8703L1869.0842 2340.435L2138.4122 2340.435L2138.4122 2491.8703M2022.9768 2340.435L1982.9768 2340.435L1982.9768 2188.9998L2022.9768 2188.9998L2022.9768 2340.435M1982.9768 2340.435L1942.9768 2340.435L1942.9768 2188.9998L1982.9768 2188.9998L1982.9768 2340.435M1942.9768 2340.435L1902.9768 2340.435L1902.9768 2188.9998L1942.9768 2188.9998L1942.9768 2340.435M1902.9768 2340.435L1869.0842 2340.435L1869.0842 2188.9998L1902.9768 2188.9998L1902.9768 2340.435M2102.9768 2340.435L2062.9768 2340.435L2062.9768 2188.9998L2102.9768 2188.9998L2102.9768 2340.435M2138.4122 2340.435L2102.9768 2340.435L2102.9768 2188.9998L2138.4122 2188.9998L2138.4122 2340.435M2062.9768 2340.435L2022.9768 2340.435L2022.9768 2188.9998L2062.9768 2188.9998L2062.9768 2340.435" stroke="#202125" stroke-width="0" stroke-opacity="1" fill="#202125" fill-rule="evenodd" fill-opacity="1" />
            </g>
                <path d="M2317.8901 2187.6988L2063.8256 2187.6988L2063.8256 1158.334L2317.8901 1158.334L2317.8901 2187.6988" stroke="#202125" stroke-width="0" stroke-opacity="1" fill="#202125" fill-rule="evenodd" fill-opacity="1" />
                <path d="M2317.8901 2187.6988L1761.932 2187.6988L1761.932 1158.334L2317.8901 1158.334L2317.8901 2187.6988" stroke="#202125" stroke-width="0" stroke-opacity="1" fill="#202125" fill-rule="evenodd" fill-opacity="1" />
                <path d="M2062.9768 2184.3393L1761.932 2187.6988L1761.932 1818.3871L2063.8256 1818.3871L2062.9768 2184.3393" stroke="#3A3A3A" stroke-width="0" stroke-opacity="1" fill="#3A3A3A" fill-rule="evenodd" fill-opacity="1" />
                <path d="M2063.8256 1680.9463L1761.932 1680.9463L1761.932 1429.4002L2063.8256 1429.4002L2063.8256 1680.9463" stroke="#3A3A3A" stroke-width="0" stroke-opacity="1" fill="#3A3A3A" fill-rule="evenodd" fill-opacity="1" />
                <path d="M1761.932 1158.334L2317.8901 1158.334L2317.8901 2187.6988L1761.932 2187.6988L1761.932 1158.334" stroke="#BDBDBD" stroke-width="60" stroke-linecap="round" stroke-linejoin="round" fill="none" />
                <path d="M2063.8256 1429.4002L1761.932 1429.4002L1761.932 1158.334L2063.8256 1158.334L2063.8256 1429.4002" stroke="#3A3A3A" stroke-width="0" stroke-opacity="1" fill="#3A3A3A" fill-rule="evenodd" fill-opacity="1" />
                <path d="M2063.8256 2187.6988L2063.8256 1158.334L1761.932 1158.334L1761.932 1429.4002L2063.8256 1429.4002L2063.8256 1158.334" stroke="#BDBDBD" stroke-width="60" stroke-linecap="round" stroke-linejoin="round" fill="none" />
                <path d="M2063.8256 1818.3871L1761.932 1818.3871L1761.932 1680.9463L2063.8256 1680.9463L2063.8256 1818.3871" stroke="#3A3A3A" stroke-width="0" stroke-opacity="1" fill="#3A3A3A" fill-rule="evenodd" fill-opacity="1" />
                <path d="M1761.932 1818.3871L2063.8256 1818.3871L2063.8256 1680.9463L1761.932 1680.9463L1761.932 1818.3871" stroke="#BDBDBD" stroke-width="60" stroke-linecap="round" stroke-linejoin="round" fill="none" />
            <g>
                <path d="M610.40859 1294.8092L610.40859 1367.4493L302.0574 1367.4493L302.68045 1294.0266L302.68045 1214.3309L456.54452 1214.3309L610.40859 1214.3309L610.40859 1294.8092M610.40859 930.57554L302.68045 930.57554L302.68045 743.97396L451.90255 743.97396L610.40859 743.97396L610.40859 930.57554M456.54452 1214.3309L302.68045 1214.3309L302.68045 1174.3309L456.54452 1174.3309L456.54452 1214.3309M456.54452 1174.3309L302.68045 1174.3309L302.68045 1134.3309L456.54452 1134.3309L456.54452 1174.3309M456.54452 1134.3309L302.68045 1134.3309L302.68045 1094.3309L456.54452 1094.3309L456.54452 1134.3309M456.54452 1094.3309L302.68045 1094.3309L302.68045 1054.3309L456.54452 1054.3309L456.54452 1094.3309M456.54452 1054.3309L302.68045 1054.3309L302.68045 1014.3309L456.54452 1014.3309L456.54452 1054.3309M456.54452 1014.3309L302.68045 1014.3309L302.68045 974.33098L456.54452 974.33098L456.54452 1014.3309M456.54452 974.33098L302.68045 974.33098L302.68045 930.57554L456.54452 930.57554L456.54452 974.33098M610.40859 974.33098L456.54452 974.33098L456.54452 930.57554L610.40859 930.57554L610.40859 974.33098M610.40859 1014.3309L456.54452 1014.3309L456.54452 974.33098L610.40859 974.33098L610.40859 1014.3309M610.40859 1054.3309L456.54452 1054.3309L456.54452 1014.3309L610.40859 1014.3309L610.40859 1054.3309M610.40859 1094.3309L456.54452 1094.3309L456.54452 1054.3309L610.40859 1054.3309L610.40859 1094.3309M610.40859 1134.3309L456.54452 1134.3309L456.54452 1094.3309L610.40859 1094.3309L610.40859 1134.3309M610.40859 1174.3309L456.54452 1174.3309L456.54452 1134.3309L610.40859 1134.3309L610.40859 1174.3309M610.40859 1214.3309L456.54452 1214.3309L456.54452 1174.3309L610.40859 1174.3309L610.40859 1214.3309" stroke="#202125" stroke-width="0" stroke-opacity="1" fill="#202125" fill-rule="evenodd" fill-opacity="1" />
            </g>
            <g>
                <path d="M1699.8285 1158.334L1506.7117 1158.334L1506.7117 743.97396L1699.8285 743.97396L1699.8285 918.47396L1699.8285 1158.334M2317.8901 1158.334L2063.8256 1158.334L2063.8256 983.76777L2063.8256 743.97396L2317.8901 743.97396L2317.8901 1158.334M2063.8256 983.76777L1699.8285 983.76777L1699.8285 918.47396L2063.8256 918.47396L2063.8256 983.76777M2063.8256 1158.334L1699.8285 1158.334L1699.8285 983.76777L2063.8256 983.76777L2063.8256 1158.334M2063.8256 918.47396L1699.8285 918.47396L1699.8285 743.97396L2063.8256 743.97396L2063.8256 918.47396" stroke="#202125" stroke-width="0" stroke-opacity="1" fill="#202125" fill-rule="evenodd" fill-opacity="1" />
            </g>
                <path d="M610.40859 1014.7528L1260.7699 1014.7528L1260.7699 1158.334L1162.1369 1158.334L1162.1369 1294.8092L610.40859 1294.8092L610.40859 1014.7528" stroke="#3A3A3A" stroke-width="0" stroke-opacity="1" fill="#3A3A3A" fill-rule="evenodd" fill-opacity="1" />
                <path d="M1260.7699 1158.334L1260.7699 743.97396L610.40859 743.97396L610.40859 1294.8092L1162.1369 1294.8092L1162.1369 1158.334L1260.7699 1158.334" stroke="#BDBDBD" stroke-width="60" stroke-linecap="round" stroke-linejoin="round" fill="none" />
                <path d="M1260.7699 1014.7528L610.40859 1014.7528L610.40859 930.57554L610.40859 743.97396L664.9691 743.97396L1111.0771 743.97396L1260.7699 743.97396L1260.7699 1014.7528" stroke="#3A3A3A" stroke-width="0" stroke-opacity="1" fill="#3A3A3A" fill-rule="evenodd" fill-opacity="1" />
                <path d="M1260.7699 1014.7528L610.40859 1014.7528L610.40859 743.97396L1260.7699 743.97396L1260.7699 1014.7528" stroke="#BDBDBD" stroke-width="60" stroke-linecap="round" stroke-linejoin="round" fill="none" />
            <g>
                <path d="M-1162.7724 1154.525L-1387.465 1154.525L-1387.465 743.97396L-1162.7724 743.97396L-1162.7724 916.56941L-1162.7724 1154.525M-574.08266 1154.525L-798.77533 1154.525L-798.77533 981.86323L-798.77533 743.97396L-574.08266 743.97396L-574.08266 1154.525M-798.77533 981.86323L-1162.7724 981.86323L-1162.7724 916.56941L-798.77533 916.56941L-798.77533 981.86323M-798.77533 1154.525L-839.5708 1154.525L-1135.4084 1154.525L-1162.7724 1154.525L-1162.7724 981.86323L-798.77533 981.86323L-798.77533 1154.525M-798.77533 916.56941L-1162.7724 916.56941L-1162.7724 743.97396L-1123.8398 743.97396L-798.77533 743.97396L-798.77533 916.56941" stroke="#202125" stroke-width="0" stroke-opacity="1" fill="#202125" fill-rule="evenodd" fill-opacity="1" />
            </g>
            <g>
                <path d="M-798.77533 1154.525L-839.5708 1154.525L-1135.4084 1154.525L-1162.7724 1154.525L-1162.7724 981.86323L-798.77533 981.86323L-798.77533 1154.525M-798.77533 916.56941L-1162.7724 916.56941L-1162.7724 743.97396L-1123.8398 743.97396L-798.77533 743.97396L-798.77533 916.56941" stroke="#5F6DEC" stroke-width="0" stroke-opacity="1" fill="#5F6DEC" fill-rule="evenodd" fill-opacity="1" />
            </g>
                <path d="M-839.5708 1154.525L-1387.465 1154.525L-1387.465 743.97396L-574.08266 743.97396L-574.08266 1154.525L-839.5708 1154.525" stroke="#BDBDBD" stroke-width="60" stroke-linecap="round" stroke-linejoin="round" fill="none" />
                <path d="M-25.98001 926.68383L-25.98001 1294.0266L-260.1425 1294.0266L-260.1425 1154.525L-415.80336 1154.525L-415.80336 743.97396L-25.98001 743.97396L-25.98001 926.68383" stroke="#3A3A3A" stroke-width="0" stroke-opacity="1" fill="#3A3A3A" fill-rule="evenodd" fill-opacity="1" />
                <path d="M-25.98001 1294.0266L-25.98001 743.97396L-415.80336 743.97396L-415.80336 1154.525L-260.1425 1154.525L-260.1425 1294.0266L-25.98001 1294.0266" stroke="#BDBDBD" stroke-width="60" stroke-linecap="round" stroke-linejoin="round" fill="none" />
                <path d="M302.68045 926.68383L-25.98001 926.68383L-25.98001 743.97396L132.15619 743.97396L302.68045 743.97396L302.68045 926.68383" stroke="#3A3A3A" stroke-width="0" stroke-opacity="1" fill="#3A3A3A" fill-rule="evenodd" fill-opacity="1" />
                <path d="M-25.98001 743.97396L-25.98001 926.68383L302.68045 926.68383L302.68045 743.97396L-25.98001 743.97396" stroke="#BDBDBD" stroke-width="60" stroke-linecap="round" stroke-linejoin="round" fill="none" />
            <g>
                <path d="M-1196.8098 2148.4831L-1196.8098 2299.9183L-1387.465 2299.9183L-1387.465 1997.0479L-1196.8098 1997.0479L-1196.8098 2148.4831M-770.64632 2299.9183L-927.48195 2299.9183L-927.48195 1997.0479L-839.5708 1997.0479L-770.64632 1997.0479L-770.64632 2299.9183M-927.48195 2299.9183L-1196.8098 2299.9183L-1196.8098 2148.4831L-927.48195 2148.4831L-927.48195 2299.9183M-927.48195 2148.4831L-962.91732 2148.4831L-962.91732 1997.0479L-927.48195 1997.0479L-927.48195 2148.4831M-962.91732 2148.4831L-1002.9173 2148.4831L-1002.9173 1997.0479L-962.91732 1997.0479L-962.91732 2148.4831M-1042.9173 2148.4831L-1082.9173 2148.4831L-1082.9173 1997.0479L-1042.9173 1997.0479L-1042.9173 2148.4831M-1082.9173 2148.4831L-1122.9173 2148.4831L-1122.9173 1997.0479L-1082.9173 1997.0479L-1082.9173 2148.4831M-1122.9173 2148.4831L-1162.9173 2148.4831L-1162.9173 1997.0479L-1122.9173 1997.0479L-1122.9173 2148.4831M-1162.9173 2148.4831L-1196.8098 2148.4831L-1196.8098 1997.0479L-1162.9173 1997.0479L-1162.9173 2148.4831M-1002.9173 2148.4831L-1042.9173 2148.4831L-1042.9173 1997.0479L-1002.9173 1997.0479L-1002.9173 2148.4831" stroke="#202125" stroke-width="0" stroke-opacity="1" fill="#202125" fill-rule="evenodd" fill-opacity="1" />
            </g>
                <path d="M-839.5708 1156.4295L-839.5708 1464.773L-1135.4084 1464.773L-1135.4084 1156.4295L-839.5708 1156.4295" stroke="#3A3A3A" stroke-width="0" stroke-opacity="1" fill="#3A3A3A" fill-rule="evenodd" fill-opacity="1" />
                <path d="M-1135.4084 1154.525L-1135.4084 1464.773L-839.5708 1464.773L-839.5708 1154.525L-1135.4084 1154.525" stroke="#BDBDBD" stroke-width="60" stroke-linecap="round" stroke-linejoin="round" fill="none" />
                <path d="M-839.5708 1709.6583L-1135.4084 1709.6583L-1135.4084 1464.773L-839.5708 1464.773L-839.5708 1709.6583" stroke="#3A3A3A" stroke-width="0" stroke-opacity="1" fill="#3A3A3A" fill-rule="evenodd" fill-opacity="1" />
                <path d="M-1135.4084 1464.773L-1135.4084 1709.6583L-839.5708 1709.6583L-839.5708 1464.773L-1135.4084 1464.773" stroke="#BDBDBD" stroke-width="60" stroke-linecap="round" stroke-linejoin="round" fill="none" />
                <path d="M-1135.4084 1997.0479L-1135.4084 1709.6583L-839.5708 1709.6583L-839.5708 1997.0479L-1135.4084 1997.0479" stroke="#3A3A3A" stroke-width="0" stroke-opacity="1" fill="#3A3A3A" fill-rule="evenodd" fill-opacity="1" />
                <path d="M-1135.4084 1709.6583L-1135.4084 1997.0479L-839.5708 1997.0479L-839.5708 1709.6583L-1135.4084 1709.6583" stroke="#BDBDBD" stroke-width="60" stroke-linecap="round" stroke-linejoin="round" fill="none" />
                <path d="M2317.8901 564.22963L2028.3131 564.22963L1967.0549 564.22963L1967.0549 35.149491L2317.8901 35.149491L2317.8901 564.22963" stroke="#3A3A3A" stroke-width="0" stroke-opacity="1" fill="#3A3A3A" fill-rule="evenodd" fill-opacity="1" />
                <path d="M2317.8901 564.22963L1967.0549 564.22963L1967.0549 35.149491L2317.8901 35.149491L2317.8901 564.22963" stroke="#BDBDBD" stroke-width="60" stroke-linecap="round" stroke-linejoin="round" fill="none" />
                <path d="M2317.8901 564.22963L2317.8901 743.97396L2028.3131 743.97396L2028.3131 564.22963L2317.8901 564.22963" stroke="#3A3A3A" stroke-width="0" stroke-opacity="1" fill="#3A3A3A" fill-rule="evenodd" fill-opacity="1" />
                <path d="M2028.3131 564.22963L2028.3131 743.97396L2317.8901 743.97396L2317.8901 564.22963L2028.3131 564.22963" stroke="#BDBDBD" stroke-width="60" stroke-linecap="round" stroke-linejoin="round" fill="none" />
                <path d="M1111.0771 743.97396L664.9691 743.97396L664.9691 35.149491L1111.0771 35.149491L1111.0771 743.97396" stroke="#3A3A3A" stroke-width="0" stroke-opacity="1" fill="#3A3A3A" fill-rule="evenodd" fill-opacity="1" />
                <path d="M664.9691 35.149491L664.9691 743.97396L1111.0771 743.97396L1111.0771 35.149491L664.9691 35.149491" stroke="#BDBDBD" stroke-width="60" stroke-linecap="round" stroke-linejoin="round" fill="none" />
                <path d="M664.9691 743.97396L451.90255 743.97396L451.90255 35.149491L664.9691 35.149491L664.9691 743.97396" stroke="#3A3A3A" stroke-width="0" stroke-opacity="1" fill="#3A3A3A" fill-rule="evenodd" fill-opacity="1" />
                <path d="M451.90255 743.97396L451.90255 35.149491L664.9691 35.149491L664.9691 743.97396L451.90255 743.97396" stroke="#BDBDBD" stroke-width="60" stroke-linecap="round" stroke-linejoin="round" fill="none" />
                <path d="M451.90255 743.97396L132.15619 743.97396L132.15619 559.59392L-9.1860772 559.59392L-9.1860772 492.96221L-9.1860772 35.149491L451.90255 35.149491L451.90255 743.97396" stroke="#3A3A3A" stroke-width="0" stroke-opacity="1" fill="#3A3A3A" fill-rule="evenodd" fill-opacity="1" />
                <path d="M451.90255 743.97396L132.15619 743.97396L132.15619 559.59392L-9.1860772 559.59392L-9.1860772 35.149491L451.90255 35.149491L451.90255 743.97396" stroke="#BDBDBD" stroke-width="60" stroke-linecap="round" stroke-linejoin="round" fill="none" />
                <path d="M-267.86908 35.149491L-9.1860772 35.149491L-9.1860772 492.96221L-181.1969 492.96221L-267.86908 492.96221L-267.86908 35.149491" stroke="#3A3A3A" stroke-width="0" stroke-opacity="1" fill="#3A3A3A" fill-rule="evenodd" fill-opacity="1" />
                <path d="M-267.86908 35.149491L-267.86908 492.96221L-9.1860772 492.96221L-9.1860772 35.149491L-267.86908 35.149491" stroke="#BDBDBD" stroke-width="60" stroke-linecap="round" stroke-linejoin="round" fill="none" />
                <path d="M-181.1969 743.97396L-181.1969 492.96221L-9.1860772 492.96221L-9.1860772 559.59392L132.15619 559.59392L132.15619 743.97396L-181.1969 743.97396" stroke="#3A3A3A" stroke-width="0" stroke-opacity="1" fill="#3A3A3A" fill-rule="evenodd" fill-opacity="1" />
                <path d="M-181.1969 492.96221L-181.1969 743.97396L132.15619 743.97396L132.15619 559.59392L-9.1860772 559.59392L-9.1860772 492.96221L-181.1969 492.96221" stroke="#BDBDBD" stroke-width="60" stroke-linecap="round" stroke-linejoin="round" fill="none" />
                <path d="M-1387.465 743.97396L-1387.465 564.8562L-1123.8398 564.8562L-1123.8398 742.06941L-1162.7724 742.06941L-1387.465 743.97396" stroke="#3A3A3A" stroke-width="0" stroke-opacity="1" fill="#3A3A3A" fill-rule="evenodd" fill-opacity="1" />
                <path d="M-1123.8398 743.97396L-1123.8398 564.8562L-1387.465 564.8562L-1387.465 743.97396L-1123.8398 743.97396" stroke="#BDBDBD" stroke-width="60" stroke-linecap="round" stroke-linejoin="round" fill="none" />
            <g>
                <path d="M-927.48195 2299.9183L-1196.8098 2299.9183L-1196.8098 2148.4831L-927.48195 2148.4831L-927.48195 2299.9183M-1122.9173 2148.4831L-1162.9173 2148.4831L-1162.9173 1997.0479L-1122.9173 1997.0479L-1122.9173 2148.4831M-1162.9173 2148.4831L-1196.8098 2148.4831L-1196.8098 1997.0479L-1162.9173 1997.0479L-1162.9173 2148.4831M-1082.9173 2148.4831L-1122.9173 2148.4831L-1122.9173 1997.0479L-1082.9173 1997.0479L-1082.9173 2148.4831M-1042.9173 2148.4831L-1082.9173 2148.4831L-1082.9173 1997.0479L-1042.9173 1997.0479L-1042.9173 2148.4831M-1002.9173 2148.4831L-1042.9173 2148.4831L-1042.9173 1997.0479L-1002.9173 1997.0479L-1002.9173 2148.4831M-962.91732 2148.4831L-1002.9173 2148.4831L-1002.9173 1997.0479L-962.91732 1997.0479L-962.91732 2148.4831M-927.48195 2148.4831L-962.91732 2148.4831L-962.91732 1997.0479L-927.48195 1997.0479L-927.48195 2148.4831" stroke="#5F6DEC" stroke-width="0" stroke-opacity="1" fill="#5F6DEC" fill-rule="evenodd" fill-opacity="1" />
            </g>
                <path d="M-1196.8098 2299.9183L-1196.8098 1997.0479L-927.48195 1997.0479L-927.48195 2299.9183L-1196.8098 2299.9183" stroke="#BDBDBD" stroke-width="20" stroke-linecap="round" stroke-linejoin="round" fill="none" />
                <path d="M-1196.8098 2148.4831L-927.48195 2148.4831L-927.48195 1997.0479L-1196.8098 1997.0479L-1196.8098 2148.4831" stroke="#BDBDBD" stroke-width="20" stroke-linecap="round" stroke-linejoin="round" fill="none" />
                <path d="M-1196.8098 2299.9183L-1196.8098 2148.4831" stroke="#BDBDBD" stroke-width="1.6127258" stroke-linecap="round" stroke-linejoin="round" fill="none" />
                <path d="M-1162.9173 2295.2578L-1162.9173 1992.3874" stroke="#BDBDBD" stroke-width="10" stroke-linecap="round" stroke-linejoin="round" fill="none" />
                <path d="M-1122.9173 2295.2578L-1122.9173 1992.3874" stroke="#BDBDBD" stroke-width="10" stroke-linecap="round" stroke-linejoin="round" fill="none" />
                <path d="M-1082.9173 2295.2578L-1082.9173 1992.3874" stroke="#BDBDBD" stroke-width="10" stroke-linecap="round" stroke-linejoin="round" fill="none" />
                <path d="M-1042.9173 2295.2578L-1042.9173 1992.3874" stroke="#BDBDBD" stroke-width="10" stroke-linecap="round" stroke-linejoin="round" fill="none" />
                <path d="M-962.91732 2295.2578L-962.91732 1992.3874" stroke="#BDBDBD" stroke-width="10" stroke-linecap="round" stroke-linejoin="round" fill="none" />
                <path d="M-1002.9173 2295.2578L-1002.9173 1992.3874" stroke="#BDBDBD" stroke-width="10" stroke-linecap="round" stroke-linejoin="round" fill="none" />
            <g>
                <path d="M1869.0842 2340.435L2138.4122 2340.435L2138.4122 2491.8703L1869.0842 2491.8703L1869.0842 2340.435M1902.9768 2188.9998L1942.9768 2188.9998L1942.9768 2340.435L1902.9768 2340.435L1902.9768 2188.9998M1869.0842 2188.9998L1902.9768 2188.9998L1902.9768 2340.435L1869.0842 2340.435L1869.0842 2188.9998M1982.9768 2340.435L1942.9768 2340.435L1942.9768 2188.9998L1982.9768 2188.9998L1982.9768 2340.435M2022.9768 2340.435L1982.9768 2340.435L1982.9768 2188.9998L2022.9768 2188.9998L2022.9768 2340.435M2062.9768 2340.435L2022.9768 2340.435L2022.9768 2188.9998L2062.9768 2188.9998L2062.9768 2340.435M2062.9768 2188.9998L2102.9768 2188.9998L2102.9768 2340.435L2062.9768 2340.435L2062.9768 2188.9998M2102.9768 2188.9998L2138.4122 2188.9998L2138.4122 2340.435L2102.9768 2340.435L2102.9768 2188.9998" stroke="#5F6DEC" stroke-width="0" stroke-opacity="1" fill="#5F6DEC" fill-rule="evenodd" fill-opacity="1" />
            </g>
                <path d="M1869.0842 2491.8703L1869.0842 2188.9998L2138.4122 2188.9998L2138.4122 2491.8703L1869.0842 2491.8703" stroke="#BDBDBD" stroke-width="20" stroke-linecap="round" stroke-linejoin="round" fill="none" />
                <path d="M1869.0842 2340.435L2138.4122 2340.435L2138.4122 2188.9998L1869.0842 2188.9998L1869.0842 2340.435" stroke="#BDBDBD" stroke-width="20" stroke-linecap="round" stroke-linejoin="round" fill="none" />
                <path d="M1902.9768 2487.2097L1902.9768 2184.3393" stroke="#BDBDBD" stroke-width="10" stroke-linecap="round" stroke-linejoin="round" fill="none" />
                <path d="M1942.9768 2487.2097L1942.9768 2184.3393" stroke="#BDBDBD" stroke-width="10" stroke-linecap="round" stroke-linejoin="round" fill="none" />
                <path d="M1982.9768 2487.2097L1982.9768 2184.3393" stroke="#BDBDBD" stroke-width="10" stroke-linecap="round" stroke-linejoin="round" fill="none" />
                <path d="M2022.9768 2487.2097L2022.9768 2184.3393" stroke="#BDBDBD" stroke-width="10" stroke-linecap="round" stroke-linejoin="round" fill="none" />
                <path d="M2102.9768 2487.2097L2102.9768 2184.3393" stroke="#BDBDBD" stroke-width="10" stroke-linecap="round" stroke-linejoin="round" fill="none" />
                <path d="M2062.9768 2487.2097L2062.9768 2184.3393" stroke="#BDBDBD" stroke-width="10" stroke-linecap="round" stroke-linejoin="round" fill="none" />
                <path d="M1699.8285 743.97396L1699.8285 1158.334L2063.8256 1158.334L2063.8256 743.97396L1699.8285 743.97396" stroke="#BDBDBD" stroke-width="20" stroke-linecap="round" stroke-linejoin="round" fill="none" />
            <g>
                <path d="M1699.8285 983.76777L2063.8256 983.76777L2063.8256 1158.334L1699.8285 1158.334L1699.8285 983.76777M1699.8285 918.47396L1699.8285 743.97396L2063.8256 743.97396L2063.8256 918.47396L1699.8285 918.47396" stroke="#5F6DEC" stroke-width="0" stroke-opacity="1" fill="#5F6DEC" fill-rule="evenodd" fill-opacity="1" />
            </g>
                <path d="M1506.7117 743.97396L1506.7117 1158.334L2317.8901 1158.334L2317.8901 743.97396L1506.7117 743.97396" stroke="#BDBDBD" stroke-width="60" stroke-linecap="round" stroke-linejoin="round" fill="none" />
                <path d="M1699.8285 983.76777L2063.8256 983.76777L2063.8256 1158.334L1699.8285 1158.334L1699.8285 983.76777" stroke="#BDBDBD" stroke-width="20" stroke-linecap="round" stroke-linejoin="round" fill="none" />
                <path d="M1699.8285 743.97396L1699.8285 918.47396L2063.8256 918.47396L2063.8256 743.97396L1699.8285 743.97396" stroke="#BDBDBD" stroke-width="20" stroke-linecap="round" stroke-linejoin="round" fill="none" />
                <path d="M1739.8285 979.44191L1739.8285 1154.0082" stroke="#BDBDBD" stroke-width="10" stroke-linecap="round" stroke-linejoin="round" fill="none" />
                <path d="M1779.8285 979.44191L1779.8285 1154.0082" stroke="#BDBDBD" stroke-width="10" stroke-linecap="round" stroke-linejoin="round" fill="none" />
                <path d="M1819.8285 979.44191L1819.8285 1154.0082" stroke="#BDBDBD" stroke-width="10" stroke-linecap="round" stroke-linejoin="round" fill="none" />
                <path d="M1859.8285 979.44191L1859.8285 1154.0082" stroke="#BDBDBD" stroke-width="10" stroke-linecap="round" stroke-linejoin="round" fill="none" />
                <path d="M1899.8285 979.44191L1899.8285 1154.0082" stroke="#BDBDBD" stroke-width="10" stroke-linecap="round" stroke-linejoin="round" fill="none" />
                <path d="M1939.8285 979.44191L1939.8285 1154.0082" stroke="#BDBDBD" stroke-width="10" stroke-linecap="round" stroke-linejoin="round" fill="none" />
                <path d="M1979.8285 979.44191L1979.8285 1154.0082" stroke="#BDBDBD" stroke-width="10" stroke-linecap="round" stroke-linejoin="round" fill="none" />
                <path d="M2019.8285 979.44191L2019.8285 1154.0082" stroke="#BDBDBD" stroke-width="10" stroke-linecap="round" stroke-linejoin="round" fill="none" />
                <path d="M1739.8285 739.61493L1739.8285 914.18125" stroke="#BDBDBD" stroke-width="10" stroke-linecap="round" stroke-linejoin="round" fill="none" />
                <path d="M1779.8285 739.61493L1779.8285 914.18125" stroke="#BDBDBD" stroke-width="10" stroke-linecap="round" stroke-linejoin="round" fill="none" />
                <path d="M1819.8285 739.61493L1819.8285 914.18125" stroke="#BDBDBD" stroke-width="10" stroke-linecap="round" stroke-linejoin="round" fill="none" />
                <path d="M1859.8285 739.61493L1859.8285 914.18125" stroke="#BDBDBD" stroke-width="10" stroke-linecap="round" stroke-linejoin="round" fill="none" />
                <path d="M1899.8285 739.61493L1899.8285 914.18125" stroke="#BDBDBD" stroke-width="10" stroke-linecap="round" stroke-linejoin="round" fill="none" />
                <path d="M1939.8285 739.61493L1939.8285 914.18125" stroke="#BDBDBD" stroke-width="10" stroke-linecap="round" stroke-linejoin="round" fill="none" />
                <path d="M1979.8285 739.61493L1979.8285 914.18125" stroke="#BDBDBD" stroke-width="10" stroke-linecap="round" stroke-linejoin="round" fill="none" />
                <path d="M2019.8285 739.61493L2019.8285 914.18125" stroke="#BDBDBD" stroke-width="10" stroke-linecap="round" stroke-linejoin="round" fill="none" />
                <path d="M-1162.7724 742.06941L-1162.7724 1156.4295L-798.77533 1156.4295L-798.77533 742.06941L-1162.7724 742.06941" stroke="#BDBDBD" stroke-width="20" stroke-linecap="round" stroke-linejoin="round" fill="none" />
                <path d="M-1162.7724 981.86323L-798.77533 981.86323L-798.77533 1156.4295L-1162.7724 1156.4295L-1162.7724 981.86323" stroke="#BDBDBD" stroke-width="20" stroke-linecap="round" stroke-linejoin="round" fill="none" />
                <path d="M-1162.7724 742.06941L-1162.7724 916.56941L-798.77533 916.56941L-798.77533 742.06941L-1162.7724 742.06941" stroke="#BDBDBD" stroke-width="20" stroke-linecap="round" stroke-linejoin="round" fill="none" />
                <path d="M-1122.7724 977.53737L-1122.7724 1152.1036" stroke="#BDBDBD" stroke-width="10" stroke-linecap="round" stroke-linejoin="round" fill="none" />
                <path d="M-1082.7724 977.53737L-1082.7724 1152.1036" stroke="#BDBDBD" stroke-width="10" stroke-linecap="round" stroke-linejoin="round" fill="none" />
                <path d="M-1042.7724 977.53737L-1042.7724 1152.1036" stroke="#BDBDBD" stroke-width="10" stroke-linecap="round" stroke-linejoin="round" fill="none" />
                <path d="M-1002.7724 977.53737L-1002.7724 1152.1036" stroke="#BDBDBD" stroke-width="10" stroke-linecap="round" stroke-linejoin="round" fill="none" />
                <path d="M-962.77242 977.53737L-962.77242 1152.1036" stroke="#BDBDBD" stroke-width="10" stroke-linecap="round" stroke-linejoin="round" fill="none" />
                <path d="M-922.77242 977.53737L-922.77242 1152.1036" stroke="#BDBDBD" stroke-width="10" stroke-linecap="round" stroke-linejoin="round" fill="none" />
                <path d="M-882.77242 977.53737L-882.77242 1152.1036" stroke="#BDBDBD" stroke-width="10" stroke-linecap="round" stroke-linejoin="round" fill="none" />
                <path d="M-842.77242 977.53737L-842.77242 1152.1036" stroke="#BDBDBD" stroke-width="10" stroke-linecap="round" stroke-linejoin="round" fill="none" />
                <path d="M-1122.7724 737.71039L-1122.7724 912.27671" stroke="#BDBDBD" stroke-width="10" stroke-linecap="round" stroke-linejoin="round" fill="none" />
                <path d="M-1082.7724 737.71039L-1082.7724 912.27671" stroke="#BDBDBD" stroke-width="10" stroke-linecap="round" stroke-linejoin="round" fill="none" />
                <path d="M-1042.7724 737.71039L-1042.7724 912.27671" stroke="#BDBDBD" stroke-width="10" stroke-linecap="round" stroke-linejoin="round" fill="none" />
                <path d="M-1002.7724 737.71039L-1002.7724 912.27671" stroke="#BDBDBD" stroke-width="10" stroke-linecap="round" stroke-linejoin="round" fill="none" />
                <path d="M-962.77242 737.71039L-962.77242 912.27671" stroke="#BDBDBD" stroke-width="10" stroke-linecap="round" stroke-linejoin="round" fill="none" />
                <path d="M-922.77242 737.71039L-922.77242 912.27671" stroke="#BDBDBD" stroke-width="10" stroke-linecap="round" stroke-linejoin="round" fill="none" />
                <path d="M-882.77242 737.71039L-882.77242 912.27671" stroke="#BDBDBD" stroke-width="10" stroke-linecap="round" stroke-linejoin="round" fill="none" />
                <path d="M-842.77242 737.71039L-842.77242 912.27671" stroke="#BDBDBD" stroke-width="10" stroke-linecap="round" stroke-linejoin="round" fill="none" />
            <g>
                <path d="M456.54452 1174.3309L456.54452 1214.3309L302.68045 1214.3309L302.68045 1174.3309L456.54452 1174.3309M456.54452 1134.3309L456.54452 1174.3309L302.68045 1174.3309L302.68045 1134.3309L456.54452 1134.3309M456.54452 1094.3309L456.54452 1134.3309L302.68045 1134.3309L302.68045 1094.3309L456.54452 1094.3309M456.54452 1054.3309L456.54452 1094.3309L302.68045 1094.3309L302.68045 1054.3309L456.54452 1054.3309M456.54452 1014.3309L456.54452 1054.3309L302.68045 1054.3309L302.68045 1014.3309L456.54452 1014.3309M456.54452 974.33098L456.54452 1014.3309L302.68045 1014.3309L302.68045 974.33098L456.54452 974.33098M456.54452 930.57554L456.54452 974.33098L302.68045 974.33098L302.68045 930.57554L456.54452 930.57554M456.54452 974.33098L456.54452 930.57554L610.40859 930.57554L610.40859 974.33098L456.54452 974.33098M456.54452 1014.3309L456.54452 974.33098L610.40859 974.33098L610.40859 1014.3309L456.54452 1014.3309M456.54452 1054.3309L456.54452 1014.3309L610.40859 1014.3309L610.40859 1054.3309L456.54452 1054.3309M456.54452 1094.3309L456.54452 1054.3309L610.40859 1054.3309L610.40859 1094.3309L456.54452 1094.3309M456.54452 1134.3309L456.54452 1094.3309L610.40859 1094.3309L610.40859 1134.3309L456.54452 1134.3309M456.54452 1174.3309L456.54452 1134.3309L610.40859 1134.3309L610.40859 1174.3309L456.54452 1174.3309M456.54452 1214.3309L456.54452 1174.3309L610.40859 1174.3309L610.40859 1214.3309L456.54452 1214.3309" stroke="#5F6DEC" stroke-width="0" stroke-opacity="1" fill="#5F6DEC" fill-rule="evenodd" fill-opacity="1" />
            </g>
                <path d="M302.68045 1214.3309L610.40859 1214.3309L610.40859 930.57554L302.68045 930.57554L302.68045 1214.3309" stroke="#BDBDBD" stroke-width="20" stroke-linecap="round" stroke-linejoin="round" fill="none" />
                <path d="M456.54452 1214.3309L302.68045 1214.3309L302.68045 930.57554L456.54452 930.57554L456.54452 1214.3309" stroke="#BDBDBD" stroke-width="20" stroke-linecap="round" stroke-linejoin="round" fill="none" />
                <path d="M302.68045 1174.3309L610.40859 1174.3309" stroke="#BDBDBD" stroke-width="10" stroke-linecap="round" stroke-linejoin="round" fill="none" />
                <path d="M302.68045 1134.3309L610.40859 1134.3309" stroke="#BDBDBD" stroke-width="10" stroke-linecap="round" stroke-linejoin="round" fill="none" />
                <path d="M302.68045 1094.3309L610.40859 1094.3309" stroke="#BDBDBD" stroke-width="10" stroke-linecap="round" stroke-linejoin="round" fill="none" />
                <path d="M302.68045 1054.3309L610.40859 1054.3309" stroke="#BDBDBD" stroke-width="10" stroke-linecap="round" stroke-linejoin="round" fill="none" />
                <path d="M302.68045 1014.3309L610.40859 1014.3309" stroke="#BDBDBD" stroke-width="10" stroke-linecap="round" stroke-linejoin="round" fill="none" />
                <path d="M302.68045 974.33098L610.40859 974.33098" stroke="#BDBDBD" stroke-width="10" stroke-linecap="round" stroke-linejoin="round" fill="none" />
                <path d="M610.40859 1294.8092L610.40859 743.97396L302.68045 743.97396L302.68045 1294.0266L302.0574 1367.4493L610.40859 1367.4493L610.40859 1294.8092" stroke="#BDBDBD" stroke-width="60" stroke-linecap="round" stroke-linejoin="round" fill="none" />
                <path d="M-839.5708 1997.0479L-1387.465 1997.0479L-1387.465 2299.9183L-770.64632 2299.9183L-770.64632 1997.0479L-839.5708 1997.0479" stroke="#BDBDBD" stroke-width="60" stroke-linecap="round" stroke-linejoin="round" fill="none" />
                <path d="M1761.932 2187.6988L2317.8901 2187.6988L2317.8901 2493.1713L1689.6063 2493.1713L1689.6063 2187.6988L1761.932 2187.6988" stroke="#BDBDBD" stroke-width="60" stroke-linecap="round" stroke-linejoin="round" fill="none" />
    </g>
</g>
</svg>